<?xml version="1.0" encoding="UTF-8" standalone="no"?><!DOCTYPE svg PUBLIC "-//W3C//DTD SVG 1.1//EN" "http://www.w3.org/Graphics/SVG/1.1/DTD/svg11.dtd"><svg width="100%" height="100%" viewBox="0 0 2522 800" version="1.1" xmlns="http://www.w3.org/2000/svg" xmlns:xlink="http://www.w3.org/1999/xlink" xml:space="preserve" xmlns:serif="http://www.serif.com/" style="fill-rule:evenodd;clip-rule:evenodd;stroke-linejoin:round;stroke-miterlimit:2;"><g><g><g><path d="M0.155,194.667c113.167,-63.75 225,-129.75 337.667,-194.292c-0.125,34.75 0.417,69.5 -0.25,104.25c-82.792,47.125 -165,95.167 -247.583,142.583c-0.209,101.375 -0.042,202.709 -0.125,304.084c52.625,30.583 105.333,60.916 158.083,91.333c0.125,-66.75 0.042,-133.458 0,-200.167c-11.167,6.417 -22.292,12.792 -33.625,18.959c-1.042,40.666 -0.125,81.375 -0.458,122.041c-30,-17.083 -59.875,-34.541 -89.75,-51.791c-0.125,-88.292 -0.209,-176.584 0.041,-264.834c71.292,-40.958 142.375,-82.333 213.75,-123.25c-0.041,218.25 0.167,436.5 -0.125,654.709c-112.541,-65.042 -225.125,-130 -337.708,-194.917c0,-136.208 -0.208,-272.458 0.083,-408.708Zm213.75,124.25c-0.041,13.125 -0.125,26.25 -0.041,39.333c11.583,-6.458 23.083,-13.125 34.291,-20.208c-0.166,-12.917 -0.208,-25.792 -0.166,-38.709c-11.417,6.417 -22.834,12.959 -34.084,19.584Z" style="fill:#1076d0;fill-rule:nonzero;"/></g></g><g><path d="M371.947,0c112.625,64.917 225.167,130 337.75,194.958c0.208,136.584 0,273.167 0.125,409.75c-112.542,65.209 -225.292,130.125 -337.875,195.167c0,-34.417 0.042,-68.792 -0.042,-103.208c82.625,-48.042 165.667,-95.334 248.167,-143.709c-0.208,-102.458 -0.125,-204.916 -0.042,-307.416c-52.625,-30.625 -105.416,-60.917 -158.125,-91.334c-0.041,68.042 -0.125,136.084 0,204.125c11.375,-6.5 22.709,-13.166 34.042,-19.833c0.042,-12.708 0.167,-25.375 -0.458,-38.042c29.208,-19.083 60.333,-35.166 90.333,-53.041c0.125,95.375 0,190.791 0.042,286.208c-29.959,17.333 -59.917,34.625 -89.875,51.875c-0.125,-47.708 -0,-95.375 -0.042,-143c-11.375,6.5 -22.708,13.083 -34.042,19.583c-0.208,47.75 0.042,95.542 -0.125,143.292c-29.916,17.25 -59.875,34.458 -89.75,51.792c-0.166,-219.125 0,-438.125 -0.083,-657.167Z" style="fill:#001471;fill-rule:nonzero;"/></g></g><g><g><path d="M790.739,439.042l99.75,-203.542l86.25,-0l99.125,203.542l-60.834,-0l-18.833,-38.584l-125.458,0l-18.834,38.584l-61.166,-0Zm185.666,-79.334l-42.666,-87.5l-42.959,87.5l85.625,0Z" style="fill:#1076d0;fill-rule:nonzero;"/><path d="M1305.11,362.833l54.875,0l-0,29.167c-0,12.958 -5.334,24.042 -16,33.25c-10.667,9.208 -23.625,13.792 -38.875,13.792l-150.542,-0c-14.833,-0 -27.708,-4.584 -38.583,-13.792c-10.875,-9.167 -16.292,-20.25 -16.292,-33.208l0,-109.625c0,-12.959 5.333,-24 16,-33.209c10.667,-9.166 23.625,-13.791 38.875,-13.791l150.542,-0c14.833,-0 27.708,4.583 38.583,13.75c10.875,9.166 16.292,20.208 16.292,33.125l-0,25.625l-54.875,-0c-0,-7 -3.042,-13 -9.084,-17.959c-6.083,-4.958 -13.5,-7.458 -22.25,-7.458l-87.833,-0c-9,-0 -16.458,2.417 -22.417,7.208c-5.958,4.792 -8.958,10.959 -8.958,18.459l0,54.75c0,7.916 3.083,14.75 9.25,20.5c6.167,5.75 13.542,8.583 22.125,8.583l87.833,-0c8.584,-0 15.959,-2.875 22.125,-8.625c6.125,-5.75 9.209,-12.583 9.209,-20.542Z" style="fill:#1076d0;fill-rule:nonzero;"/><path d="M1595.86,362.833l54.875,0l-0,29.167c-0,12.958 -5.334,24.042 -16,33.25c-10.667,9.208 -23.625,13.792 -38.875,13.792l-150.542,-0c-14.833,-0 -27.708,-4.584 -38.583,-13.792c-10.875,-9.167 -16.292,-20.25 -16.292,-33.208l0,-109.625c0,-12.959 5.333,-24 16,-33.209c10.667,-9.166 23.625,-13.791 38.875,-13.791l150.542,-0c14.833,-0 27.708,4.583 38.583,13.75c10.875,9.166 16.292,20.208 16.292,33.125l-0,25.625l-54.875,-0c-0,-7 -3.042,-13 -9.084,-17.959c-6.083,-4.958 -13.5,-7.458 -22.25,-7.458l-87.833,-0c-9,-0 -16.458,2.417 -22.417,7.208c-5.958,4.792 -8.958,10.959 -8.958,18.459l0,54.75c0,7.916 3.083,14.75 9.25,20.5c6.167,5.75 13.542,8.583 22.125,8.583l87.833,-0c8.584,-0 15.959,-2.875 22.125,-8.625c6.125,-5.75 9.209,-12.583 9.209,-20.542Z" style="fill:#1076d0;fill-rule:nonzero;"/><path d="M1675.53,392.083l0,-156.583l54.875,-0l0,127.417c0,8.125 3.042,15.041 9.084,20.666c6.041,5.625 13.5,8.459 22.25,8.459l73.083,-0c8.792,-0 16.208,-2.792 22.25,-8.459c6.083,-5.625 9.083,-12.5 9.083,-20.666l0,-127.417l54.875,-0l0,156.583c0,12.959 -5.333,24 -16,33.209c-10.666,9.166 -23.625,13.791 -38.875,13.791l-135.791,0c-14.834,0 -27.709,-4.583 -38.584,-13.791c-10.833,-9.209 -16.25,-20.25 -16.25,-33.209Z" style="fill:#1076d0;fill-rule:nonzero;"/><path d="M2003.32,439.667l-54.917,-0l0,-204.167l178.792,-0c15.042,-0 27.958,5.042 38.75,15.167c10.75,10.125 16.167,22.25 16.167,36.458l-0,34.417c-0,8.125 -2.417,15.166 -7.209,21.125c-4.833,5.958 -11.291,11.916 -19.458,18c11.917,1.458 19.333,8.291 22.25,20.541c2.917,12.25 4.375,31.75 4.375,58.5l-54.875,0c0,-17.75 -1.583,-30.833 -4.708,-39.208c-3.125,-8.375 -7.334,-12.542 -12.542,-12.542l-106.625,0l0,51.709Zm-0.042,-152.417l0,48.917l99.417,-0c6.708,-0 12.458,-2.584 17.25,-7.792c4.792,-5.208 7.208,-11.417 7.208,-18.708c0,-6.25 -2.416,-11.542 -7.208,-15.875c-4.833,-4.375 -10.583,-6.542 -17.25,-6.542l-99.417,-0Z" style="fill:#1076d0;fill-rule:nonzero;"/><rect x="2208.7" y="235.5" width="54.875" height="203.542" style="fill:#1076d0;fill-rule:nonzero;"/><path d="M2293.41,373.833l54.875,1.584c0,6.291 1.5,11.666 4.542,16.166c3.042,4.5 6.75,6.75 11.125,6.75l75.292,0c7.541,0 13.958,-1.916 19.291,-5.791c5.334,-3.875 8,-8.5 8,-13.959c0,-5 -1.875,-9.291 -5.625,-12.875c-3.75,-3.541 -8.375,-5.333 -13.791,-5.333l-98.792,-3.458c-18.833,-0 -32.667,-4.542 -41.542,-13.625c-8.875,-9.084 -13.333,-20.917 -13.333,-35.5l0,-31.584c0,-11.25 5.333,-20.875 16,-28.791c10.667,-7.917 23.625,-11.875 38.875,-11.875l123.875,-0c11.917,-0 22.042,3.958 30.417,11.916c8.375,7.959 12.541,17.584 12.541,28.875l0,19.459l-54.875,-0c0,-5.834 -1.791,-10.542 -5.333,-14.125c-3.542,-3.542 -9.083,-5.334 -16.625,-5.334l-75.292,0c-3.958,0 -7.416,1.667 -10.333,5c-2.917,3.334 -4.375,7.417 -4.375,12.25c0,6.084 0.583,10.417 1.708,13c1.125,2.625 4.459,3.917 9.875,3.917l106.625,3.458c16.709,0 30.042,4.25 40,12.709c9.917,8.458 14.917,23.666 14.917,45.625c0,26.125 -5.625,43.791 -16.917,53c-11.291,9.208 -28.333,13.791 -51.125,13.791l-105.083,0c-15.042,0 -27.958,-4.041 -38.75,-12.083c-10.792,-8.042 -16.167,-17.625 -16.167,-28.708l0,-24.459Z" style="fill:#1076d0;fill-rule:nonzero;"/></g><g><g><path d="M1227.9,549.583l0,36.334l-26.5,-0l0,-98.209l26.5,0l0,35.417l65.375,0l0,-35.417l26.5,0l0,98.209l-26.5,-0l0,-36.334l-65.375,0Z" style="fill:#001471;fill-rule:nonzero;"/><path d="M1348.53,561l0,-48.333c0,-6.959 2.584,-12.834 7.709,-17.667c5.125,-4.833 11.416,-7.25 18.75,-7.25l72.625,-0c7.25,-0 13.5,2.458 18.708,7.333c5.208,4.875 7.792,10.75 7.792,17.584l-0,47.916c-0,6.959 -2.584,12.917 -7.792,17.917c-5.208,5 -11.417,7.458 -18.708,7.458l-72.625,0c-7.167,0 -13.375,-2.458 -18.625,-7.416c-5.25,-4.959 -7.834,-10.792 -7.834,-17.542Zm37.792,-0.042l49.625,0c3.125,0 5.833,-1.125 8.167,-3.333c2.333,-2.208 3.5,-4.875 3.5,-8l-0,-26.417c-0,-3 -1.125,-5.541 -3.334,-7.541c-2.208,-2 -5,-3 -8.333,-3l-49.625,-0c-3.25,-0 -5.917,1.041 -8.083,3.083c-2.167,2.083 -3.25,4.542 -3.25,7.458l-0,26.417c-0,3 1.083,5.667 3.25,7.917c2.166,2.291 4.875,3.416 8.083,3.416Z" style="fill:#001471;fill-rule:nonzero;"/><path d="M1502.11,554.417l26.5,0.75c-0,3.041 0.75,5.625 2.208,7.791c1.458,2.167 3.25,3.25 5.375,3.25l36.333,0c3.625,0 6.75,-0.916 9.292,-2.791c2.583,-1.875 3.875,-4.125 3.875,-6.75c0,-2.417 -0.917,-4.5 -2.708,-6.209c-1.834,-1.708 -4.042,-2.583 -6.667,-2.583l-47.667,-1.667c-9.083,0 -15.75,-2.166 -20.041,-6.583c-4.292,-4.375 -6.417,-10.083 -6.417,-17.125l0,-15.25c0,-5.417 2.583,-10.042 7.708,-13.875c5.125,-3.833 11.417,-5.75 18.75,-5.75l59.792,-0c5.75,-0 10.625,1.917 14.667,5.75c4.041,3.833 6.041,8.458 6.041,13.917l0,9.375l-26.5,-0c0,-2.834 -0.875,-5.084 -2.583,-6.792c-1.708,-1.708 -4.375,-2.583 -8,-2.583l-36.375,-0c-1.917,-0 -3.583,0.791 -5,2.416c-1.417,1.625 -2.125,3.584 -2.125,5.917c0,2.917 0.292,5 0.833,6.292c0.542,1.25 2.125,1.875 4.75,1.875l51.459,1.666c8.083,0 14.5,2.042 19.291,6.125c4.792,4.084 7.209,11.417 7.209,22c-0,12.625 -2.709,21.125 -8.167,25.584c-5.458,4.458 -13.667,6.666 -24.667,6.666l-50.708,0c-7.25,0 -13.5,-1.958 -18.708,-5.833c-5.209,-3.875 -7.792,-8.5 -7.792,-13.833l0,-11.75l0.042,-0Z" style="fill:#001471;fill-rule:nonzero;"/><path d="M1710.49,585.917l-30.125,-0l-0,-71.709l-41,0l-0,-26.5l112,0l-0,26.5l-40.875,0l-0,71.709Z" style="fill:#001471;fill-rule:nonzero;"/><rect x="1780.53" y="487.708" width="26.5" height="98.208" style="fill:#001471;fill-rule:nonzero;"/><path d="M1838.03,585.917l0,-98.209l45.417,0l53.708,79.292l0,-79.292l26.5,0l0,98.209l-45.833,-0l-53.25,-79l0,79l-26.542,-0Z" style="fill:#001471;fill-rule:nonzero;"/><path d="M2084.24,549.125l-35.25,0l-0,-19.667l61.75,0l-0,33.75c-0,6.25 -2.834,11.584 -8.459,16.042c-5.666,4.458 -12.541,6.667 -20.75,6.667l-62.333,-0c-7.167,-0 -13.375,-2.209 -18.625,-6.667c-5.25,-4.417 -7.875,-9.75 -7.875,-16l0,-52.875c0,-6.25 2.583,-11.583 7.708,-16c5.125,-4.417 11.417,-6.667 18.75,-6.667l62.375,0c7.959,0 14.834,2.209 20.584,6.667c5.75,4.458 8.625,9.792 8.625,16.042l-0,9.083l-26.5,0c-0,-2.417 -0.917,-4.542 -2.709,-6.375c-1.833,-1.833 -3.916,-2.708 -6.375,-2.708l-40.875,-0c-4.333,-0 -7.958,1.166 -10.833,3.458c-2.875,2.292 -4.292,5.292 -4.292,8.917l0,26.416c0,3.834 1.5,7.125 4.459,9.875c2.958,2.75 6.541,4.167 10.666,4.167l40.417,0c2.625,0 4.875,-1.375 6.75,-4.167c1.875,-2.791 2.792,-6.125 2.792,-9.958Z" style="fill:#001471;fill-rule:nonzero;"/></g><path d="M1170.9,550.542l-380.166,-13.75l380.166,-13.709l0,27.459Z" style="fill:#001471;fill-rule:nonzero;"/><path d="M2141.24,523.083l380.166,13.709l-380.166,13.75l-0,-27.459Z" style="fill:#001471;fill-rule:nonzero;"/></g></g></svg>