<svg version="1.2" baseProfile="tiny-ps" xmlns="http://www.w3.org/2000/svg" viewBox="0 0 1729 429" width="1729" height="429">
	<title>banner-black</title>
	<style>
		tspan { white-space:pre }
		.s0 { fill: #103f84 } 
	</style>
	<path id="Shape 1" class="s0" d="m1300 50c0-27.61 22.39-50 50-50h329c27.61 0 50 22.39 50 50v329c0 27.61-22.39 50-50 50h-329c-27.61 0-50-22.39-50-50v-329z" />
	<path id="DutchIS " fill="#000000" aria-label="DutchIS"  d="m133.5 393c98 0 155-73.5 155-171.5c0-98-57-173-155-173h-133.5v344.5zm-87-43.5v-257.5h87c71.5 0 108.5 57 108.5 129.5c0 72.5-37 128-108.5 128zm463.5-64c0 50-33 68-66 68c-32 0-51-22.5-51-62v-132h-45.5v135c-0.5 66 31.5 103.5 90 103.5c25.5 0 58-12 72.5-40v35h45.5v-233.5h-45.5zm184.5-126v-88h-45.5v88h-42v38.5h42v195h45.5v-195h49.5v-38.5zm82 116c0 74 57 122.5 123.5 122.5c36 0 68.5-14 90.5-38l-35-29c-14 14.5-34 23-55.5 23c-42 0-78.5-32-78.5-78.5c0-47 36.5-76.5 78.5-76.5c21.5 0 41.5 8 55.5 22l34.5-29c-22-24-54-37.5-90-37.5c-66.5 0-123.5 47-123.5 121zm317-8.5c0-50 39-68 71-68c32 0 55 23.5 55 62v132h45.5v-135c0.5-66-36-103.5-94.5-103.5c-25 0-63.5 12-77 40v-162h-45.5v360.5h45.5z" />
	<path id="DutchIS " fill="#ffffff" aria-label="DutchIS"  d="m1347 48.5v344.5h46.5v-344.5zm119.5 245c0 54 50.5 104.5 120.5 104.5c68 0 108.5-40 115-90c7.5-55.5-27.5-91.5-92-108l-45-11c-43.5-10.5-49-33-49-48c0-31.5 30.5-52 64.5-52c38 0 65 22 65 56.5h46.5c0-62-48.5-101-111-101c-58.5 0-111.5 39-111.5 97c0 30 10.5 71.5 84 90l44.5 11c31 7 61 24.5 58.5 61.5c-4 26-25.5 50.5-69.5 50.5c-43.5 0-74-31-74-61z" />
</svg>