<svg fill="none" xmlns="http://www.w3.org/2000/svg" viewBox="0 0 1447 355">
    <path
        d="M1445.87 180.69c0 42.82-.2 85.65.18 128.47.07 7.92-2.16 10.13-9.99 9.86a714.78 714.78 0 0 0-48.78.08c-6.97.23-8.65-2.23-8.61-8.8.23-46.88.17-93.77.08-140.66-.01-3.6-.96-7.18-1.47-10.77-1.43 3.22-3.01 6.38-4.26 9.66-9.33 24.54-18.61 49.1-27.88 73.67-8.93 23.65-18.05 47.23-26.55 71.04-1.67 4.67-3.9 5.68-8.15 5.64-14.37-.13-28.73-.15-43.1.02-3.65.04-5.51-.78-6.88-4.64-8.98-25.34-18.2-50.6-27.62-75.8-8.71-23.27-17.76-46.41-26.66-69.61-.19-.5-.36-1.02-.56-1.52l-3.45-8.8c-.39 3.25-1.12 6.49-1.13 9.74-.11 46.89-.3 93.78 0 140.67.05 7.72-1.95 10.46-9.9 10.19-17.06-.57-34.15-.45-51.22-.21-5.3.07-6.93-1.6-6.92-6.9.15-87.82.16-175.63.09-263.45 0-4.34.88-6.27 5.76-6.22 23.04.2 46.08-.03 69.12.26 2.2.03 5.58 2.14 6.39 4.1 12.13 29.62 23.84 59.4 35.83 89.08 7.07 17.5 14.51 34.87 21.69 52.34 4.54 11.04 8.77 22.2 13.46 33.18 1.06 2.49 3.49 4.39 5.29 6.57 1.35-2.12 3.01-4.12 4.01-6.4 5.79-13.14 11.72-26.24 17.04-39.58 6.88-17.24 12.99-34.78 19.89-52.01 8.42-21.01 17.35-41.81 25.97-62.74 2.74-6.65 5.93-13.25 7.52-20.2.91-3.97 2.17-4.6 5.62-4.57 23.04.1 46.09.3 69.12-.11 6.47-.12 6.1 3.23 6.09 7.52-.04 43.62-.02 87.26-.02 130.9ZM848 109c-.5-1.5-.47-1.33-.93-2.68a7744.55 7744.55 0 0 0-20.11-57.85c-.44-1.24-1.32-2.33-1.99-3.5 1.97-.84 3.93-2.4 5.9-2.42 20.06-.2 40.11-.04 60.17-.22 3.77-.03 5.49.92 6.69 4.78 6.19 19.97 12.72 39.82 19.23 59.69 7.71 23.53 15.5 47.03 23.29 70.54 6.69 20.19 13.39 40.38 20.16 60.55 1.16 3.45 2.69 6.78 4.05 10.17 1.65-3.28 3.76-6.41 4.87-9.87 8.66-26.94 16.89-54.01 25.74-80.9 7.07-21.45 14.9-42.66 22.23-64.03a2362 2362 0 0 0 14.84-44.95c1.3-4.05 2.95-6.13 7.82-6.04 19.24.33 38.49.24 57.73.07 5.13-.05 6.66 1 4.64 6.4-5.34 14.28-10.09 28.76-15.12 43.14-8.9 25.44-17.99 50.8-26.68 76.3-6.12 17.97-11.18 36.3-17.63 54.13-8.03 22.19-17.13 43.98-25.52 66.04a321.63 321.63 0 0 0-7.97 24.46c-1.27 4.36-3.67 6.05-8.16 6.03-24.39-.11-48.79.08-73.18-.23-2.22-.03-5.64-2.38-6.41-4.44-9-23.93-17.68-47.98-26.29-72.05-7.22-20.17-14.23-40.41-21.35-60.61-8.06-22.85-16.12-45.71-24.3-68.52-1.07-2.99-.97-1.75-1.72-3.99Z"
        fill="#0099FF" />
    <path fill-rule="evenodd" clip-rule="evenodd"
        d="M830.7 138.12c5.34-9.08 10.7-18.16 16.11-27.18 3.16-2.52 2.43-5.81 1.45-8.92-3.5-11.44-7.5-22.71-11.48-33.98-2.03-5.75-4.06-11.49-6.03-17.25l-.06-.18c-.89-2.6-1.94-5.67-5.74-5.63-.24.1-.53.18-.8.26-.59.16-1.17.33-1.39.7-9.89 16.56-19.73 33.13-29.57 49.7l-10.23 17.22-6 10.08c-7.75 13.06-15.5 26.11-23.3 39.15-2.48 4.15-4.1 3.66-6.64-.56-9.66-16.1-19.39-32.14-29.12-48.19-12.83-21.15-25.66-42.3-38.32-63.56-2.51-4.2-4.92-5.3-9.34-5.28-33.08.14-66.16.17-99.24.05-20.94-.07-41.88.5-62.09 6.3-37.83 10.83-66.63 38.97-64.44 82.79 1.41 28.1 22.3 55.9 49.81 63.2 7.14 1.9 14.3 3.74 21.45 5.57 12.02 3.09 24.04 6.17 35.97 9.54 11.34 3.2 22.65 6.85 33.52 11.37 11.11 4.62 16.03 13.63 15.54 24.47-.36 7.99-6 12.24-11.38 16.3l-.89.67c-10.14 7.68-22.5 7.98-34.39 8.26l-2.23.06c-14.21.37-28.44.33-42.67.29-11.8-.04-23.61-.08-35.41.13-6.22.1-8.98-2.38-11.16-7.45a4759.15 4759.15 0 0 0-28.56-65.6A2718.81 2718.81 0 0 0 419.21 168a2682.02 2682.02 0 0 1-15.17-33.14 5759.78 5759.78 0 0 1-32.62-74.73c-2.05-4.76-4.75-6.72-10.23-6.57-15.71.43-31.46.49-47.17-.02-5.89-.2-8.33 2.08-10.47 7.07a3056.98 3056.98 0 0 1-25.51 57.74c-4.4 9.72-8.88 19.4-13.37 29.08a2940.76 2940.76 0 0 0-16.74 36.6 6363.45 6363.45 0 0 0-34.69 79.48c-1.83 4.25-4.19 5.77-8.91 5.75-43.65-.18-87.3-.18-130.95.06-5.24.03-6.3-1.75-6.24-6.5.21-18.15.24-36.32-.03-54.48-.07-5.16 1.22-6.91 6.73-6.85 14.2.15 28.39.13 42.58.11 11.84-.01 23.67-.03 35.5.06 5.14.04 7.14-1.1 6.95-6.75-.44-12.73-.39-25.5.06-38.22.22-6.24-1.5-8.24-8.04-8.14-18.2.29-36.39.25-54.59.22a7144.64 7144.64 0 0 0-23.65-.01c-2.92.06-5.52.1-5.48-4.6.06-7.8.05-15.61.03-23.42-.02-10.36-.04-20.71.13-31.06.03-1.6 2.98-4.51 4.59-4.52 19.58-.16 39.17-.17 58.76-.18 13.22-.01 26.44-.02 39.66-.07 4.47-.02 5.6 1.83 5.41 5.84-.2 4.01-.12 8.05-.04 12.09 0 .58.02 1.15.03 1.73.18 10.47 3.73 12.99 13.25 8.43 5.68-2.73 11.11-5.97 16.54-9.22 2.03-1.21 4.07-2.43 6.11-3.61l15.66-9.07c14.54-8.4 29.07-16.8 43.46-25.44 8.97-5.4 8.62-11.35-.33-16.66a1699.33 1699.33 0 0 0-25.78-15.07l-9.46-5.4c-15.67-8.96-31.33-17.9-47.14-26.6-7.79-4.28-12.08-1.33-12.32 7.77l-.08 2.45c-.13 3.53-.26 7.08.18 10.55.88 6.96-1.99 8.42-8.56 8.39-22.92-.12-45.84-.12-68.76-.13-29.68 0-59.37 0-89.05-.25-8.2-.07-9.45 2.37-9.43 9.84.26 91.64.24 183.28-.03 274.92-.02 7.07 2.16 8.3 8.66 8.26 78.61-.54 157.23-.84 235.84-.96 4.56-.01 6.54-1.37 8.17-5.38 3.1-7.62 6.31-15.19 9.52-22.76 3.41-8.04 6.83-16.1 10.11-24.2 1.49-3.65 3.1-5.41 7.33-5.4 38.23.17 76.46.18 114.69.04 4.11-.02 5.82 1.24 7.35 5.19a638.9 638.9 0 0 0 7.69 18.66c3.76 8.88 7.52 17.76 10.7 26.85 2.09 6 4.79 7.03 10.24 7 13.69-.08 27.37-.04 41.06-.01 23.74.05 47.47.11 71.19-.38 17-.35 34.33-1.6 50.83-5.37 35.34-8.1 60.76-27.25 68.15-65.71 5.33-27.74-7.17-58.05-32.67-70.31-12.8-6.15-26.49-10.7-40.12-14.83-11.1-3.38-22.32-6.4-33.53-9.44-10.42-2.82-20.84-5.63-31.18-8.72-11.73-3.51-17.55-12.51-17.54-24.31.01-10.34 7.42-19.11 17.85-23.73 10.52-4.66 21.43-4.52 32.3-4.38 4.88.07 9.75.13 14.58-.23 12.98-1 26.04-.83 39.1-.66 7.84.1 15.68.2 23.5.05 4.94-.1 7.23 1.9 9.34 5.7l2.72 4.91c5.5 9.97 11.02 19.94 16.93 29.68 7.86 12.93 15.79 25.82 23.72 38.71 9.23 15 18.46 30 27.57 45.08 1.66 2.76 2.09 6.6 2.11 9.96.16 28.2.27 56.4-.05 84.59-.07 5.82 1.62 7.2 7.24 7.07a976.8 976.8 0 0 1 49.61 0c6.08.18 7.01-2.02 6.95-7.38-.11-9.43-.07-18.86-.03-28.3.06-13.07.12-26.14-.24-39.2-.41-15.1 2.04-28.28 10.77-41.6 14.1-21.5 27.16-43.67 40.23-65.84Zm-504.32 79.91 10.91.02v-.03c3.58 0 7.16-.02 10.74-.04 8.87-.05 17.75-.1 26.62.15 5.23.14 4.93-1.75 3.34-5.42a1795.7 1795.7 0 0 1-11.92-28.26l-10.26-24.9a11171.6 11171.6 0 0 0-15.41-37.34 16.22 16.22 0 0 0-2.17-3.44c-.38-.51-.77-1.02-1.12-1.54-.33.53-.69 1.06-1.05 1.58a20.9 20.9 0 0 0-2.09 3.58c-1.78 4.26-3.5 8.54-5.23 12.83-1.72 4.29-3.44 8.58-5.22 12.84l-4.28 10.24a3624.35 3624.35 0 0 1-23.19 54.7c-1.87 4.28-1.3 5.13 3.06 5.09 9.1-.09 18.18-.07 27.27-.06Z"
        fill="#333" />
</svg>
