<svg xmlns="http://www.w3.org/2000/svg" viewBox="0 0 143.74 26.88"><defs><style>.cls-1{fill:#00ff86;}.cls-1,.cls-2,.cls-3,.cls-4,.cls-5,.cls-6,.cls-7{fill-rule:evenodd;}.cls-2{fill:#4e73df;}.cls-3{fill:#00cc69;}.cls-4{fill:#00e879;}.cls-5{fill:#00bb62;}.cls-6{fill:#fff;}.cls-7{fill:#101928;}</style></defs><g id="Vrstva_2" data-name="Vrstva 2"><g id="Logo_v1" data-name="Logo v1"><polygon class="cls-1" points="12 16.8 24 12 24 4.8 12 0 0 4.8 0 12 12 16.8"/><polygon class="cls-2" points="12 26.88 24 22.08 12 17.28 0 22.08 12 26.88"/><polygon class="cls-3" points="12 24 12 9.6 24 4.8 24 19.2 12 24"/><polygon class="cls-4" points="12 24 12 9.6 0 4.8 0 19.2 12 24"/><polygon class="cls-5" points="7.44 16.32 7.44 13.68 5.28 12.72 5.28 15.36 7.44 16.32"/><polygon class="cls-6" points="7.2 16.08 7.2 13.68 5.04 12.72 5.04 15.12 7.2 16.08"/><path class="cls-7" d="M39.06,15.46a4.44,4.44,0,0,1-1.8.38,3.39,3.39,0,0,1-1.73-.43,2.94,2.94,0,0,1-1.18-1.19,3.56,3.56,0,0,1-.42-1.74A3.34,3.34,0,0,1,34.85,10a3.36,3.36,0,0,1,2.44-.91,3.73,3.73,0,0,1,2.86,1.32l2.11-1.95a5.72,5.72,0,0,0-2.18-1.67,7.16,7.16,0,0,0-2.95-.58,7.06,7.06,0,0,0-3.38.8,5.82,5.82,0,0,0-2.34,2.22,6.21,6.21,0,0,0-.84,3.22,6.19,6.19,0,0,0,.84,3.22,5.83,5.83,0,0,0,2.32,2.22,6.78,6.78,0,0,0,3.33.8,9.21,9.21,0,0,0,2.62-.4A7.75,7.75,0,0,0,42,17.17V12.23H39.06Zm13.88,3H56.4l-5.21-12H47.92l-5.2,12h3.4L47,16.24h5ZM48,13.68l1.51-3.81L51,13.68Zm23,4.8,0-12H68.24l-4,7-4.13-7H57.34v12h3.07V12.34l3,5H64.9l3-5.13,0,6.31Zm5.7-2.56V13.68h5.22V11.12H76.71V9h5.93V6.48H73.42v12h9.44V15.92ZM92,18.48h3.56L93,14.72a4.06,4.06,0,0,0,1.7-1.52,4.26,4.26,0,0,0,.6-2.28,4.33,4.33,0,0,0-.64-2.35A4.14,4.14,0,0,0,92.84,7a6.55,6.55,0,0,0-2.77-.54H84.7v12H88v-3.2h1.81Zm0-7.59a1.71,1.71,0,0,1-.53,1.35,2.19,2.19,0,0,1-1.54.48H88V9h1.85a2.19,2.19,0,0,1,1.54.48A1.78,1.78,0,0,1,91.94,10.89Zm14.58-4.17V12H99.16V6.72H97.92V18.48h1.24V13h7.36v5.44h1.23V6.72Zm10.22,11.76a6.49,6.49,0,0,0,3.15-.76,5.72,5.72,0,0,0,2.21-2.1,5.82,5.82,0,0,0-2.21-8.14,6.91,6.91,0,0,0-6.32,0,5.64,5.64,0,0,0-2.22,2.11,5.75,5.75,0,0,0-.8,3,5.79,5.79,0,0,0,.8,3,5.68,5.68,0,0,0,2.22,2.1A6.44,6.44,0,0,0,116.74,18.48Zm0-1a5.11,5.11,0,0,1-2.53-.63,4.56,4.56,0,0,1-1.78-1.73,4.76,4.76,0,0,1-.65-2.48,4.7,4.7,0,0,1,.65-2.47,4.58,4.58,0,0,1,1.78-1.74,5.35,5.35,0,0,1,5,0A4.62,4.62,0,0,1,121,10.13a4.89,4.89,0,0,1,.64,2.47,5,5,0,0,1-.64,2.48,4.6,4.6,0,0,1-1.77,1.73A5.06,5.06,0,0,1,116.74,17.44Zm12.26,1a6.23,6.23,0,0,0,2.43-.42,3.21,3.21,0,0,0,1.47-1.14,2.81,2.81,0,0,0,.48-1.59,2.41,2.41,0,0,0-.55-1.68,3.42,3.42,0,0,0-1.35-.92,15.35,15.35,0,0,0-2.1-.62c-.72-.18-1.31-.34-1.74-.49a2.78,2.78,0,0,1-1.07-.64,1.53,1.53,0,0,1-.43-1.12,1.8,1.8,0,0,1,.78-1.51,3.86,3.86,0,0,1,2.33-.59A6,6,0,0,1,130.9,8a5.66,5.66,0,0,1,1.58.73l.42-1A6,6,0,0,0,131.22,7a7.26,7.26,0,0,0-2-.27,6.09,6.09,0,0,0-2.42.43,3.2,3.2,0,0,0-1.44,1.15,2.8,2.8,0,0,0-.47,1.59,2.42,2.42,0,0,0,.56,1.7,3.35,3.35,0,0,0,1.35.93,16.56,16.56,0,0,0,2.12.64c.74.18,1.31.34,1.73.49a3.06,3.06,0,0,1,1,.63,1.51,1.51,0,0,1,.43,1.11,1.76,1.76,0,0,1-.79,1.48,4.06,4.06,0,0,1-2.37.57,6.32,6.32,0,0,1-2.19-.39,4.52,4.52,0,0,1-1.69-1l-.49.94a4.6,4.6,0,0,0,1.85,1.1A7.61,7.61,0,0,0,129,18.48Zm9.36,0h1.24V7.76h4.14v-1h-9.51v1h4.13Z"/></g></g></svg>