<svg xmlns="http://www.w3.org/2000/svg" version="1.1" xmlns:xlink="http://www.w3.org/1999/xlink"
    width="729" height="201" viewBox="0 0 729 201">
    <svg xml:space="preserve" width="729" height="201" data-version="2"
        data-id="lg_iLibo40Jq6Mp7W8Zyq" viewBox="0 0 729 201" x="0" y="0"><rect width="100%" height="100%" fill="transparent"></rect><path fill="#122023" d="M261.887 144.96q-7.2 0-13.47-2.83-6.28-2.82-10.98-7.85-4.7-5.02-7.35-11.6-2.65-6.57-2.65-14.07 0-7.65 2.75-14.25t7.55-11.53q4.8-4.92 11.03-7.67 6.22-2.75 13.22-2.75 8.05 0 15.23 3.75 7.17 3.75 12.17 10.65l-6.25 3.4q-4-5.25-9.62-8.05-5.63-2.8-11.58-2.8-5.65 0-10.62 2.27-4.98 2.28-8.78 6.33-3.8 4.05-5.95 9.35-2.15 5.3-2.15 11.4 0 6.05 2.15 11.35t5.93 9.32q3.77 4.03 8.77 6.3 5 2.28 10.7 2.28 4.7 0 8.93-1.63 4.22-1.62 7.72-4.57t5.93-6.9q2.42-3.95 3.52-8.6h-18.9v-6.35h27.05q-.15 7.25-2.9 13.6t-7.47 11.17q-4.73 4.83-10.85 7.55-6.13 2.73-13.13 2.73"></path><rect width="68.8" height="72.55" x="-34.4" y="-36.27" fill="none" rx="0" ry="0" transform="translate(262.34 109.19)"></rect><path fill="#122023" d="M327.587 144.96q-6.9 0-12.57-3.55-5.68-3.55-9.05-9.53-3.38-5.97-3.38-13.22 0-5.5 1.95-10.28 1.95-4.77 5.38-8.4 3.42-3.62 7.97-5.67t9.7-2.05q5.55 0 10.23 2.2 4.67 2.2 8.05 6.15 3.37 3.95 5.1 9.25 1.72 5.3 1.42 11.45h-42.4q.6 4.75 3.03 8.5 2.42 3.75 6.2 5.92 3.77 2.18 8.37 2.23 5 0 9.03-2.6 4.02-2.6 6.47-7.15l7.1 1.65q-3 6.65-9.05 10.87-6.05 4.23-13.55 4.23m-17.8-29.3h35.55q-.35-4.65-2.82-8.53-2.48-3.87-6.38-6.2-3.9-2.32-8.55-2.32t-8.5 2.27q-3.85 2.28-6.3 6.15-2.45 3.88-3 8.63"></path><rect width="49.95" height="52.7" x="-24.98" y="-26.35" fill="none" rx="0" ry="0" transform="translate(328.06 119.11)"></rect><path fill="#122023" d="M385.637 100.66h-11.95l-.05 43h-7l.05-43h-9.05v-7h9.05l-.05-15.7h7l.05 15.7h11.95Z"></path><rect width="28" height="65.7" x="-14" y="-32.85" fill="none" rx="0" ry="0" transform="translate(372.14 111.31)"></rect><path fill="#122023" d="m415.987 143.66-25.4-70h7.4l22.2 61.2 22.3-61.2h7.4l-25.45 70Z"></path><rect width="59.3" height="70" x="-29.65" y="-35" fill="none" rx="0" ry="0" transform="translate(420.74 109.16)"></rect><path fill="#122023" d="M458.887 143.66v-70h22.4q5.6 0 10.1 2.72 4.5 2.73 7.18 7.35 2.67 4.63 2.67 10.38 0 5.8-2.72 10.45-2.73 4.65-7.25 7.35-4.53 2.7-9.98 2.7h-15.4v29.05Zm7-36.05h14.85q3.7 0 6.78-1.83 3.07-1.82 4.9-4.95 1.82-3.12 1.82-7.07t-1.82-7.08q-1.83-3.12-4.9-4.95-3.08-1.82-6.78-1.82h-14.85Z"></path><rect width="42.35" height="70" x="-21.18" y="-35" fill="none" rx="0" ry="0" transform="translate(480.56 109.16)"></rect><path fill="#122023" d="M535.687 144.96q-5.6 0-10.82-1.75-5.23-1.75-9.13-5-3.9-3.25-5.5-7.75l6.55-2.45q1.1 3.1 4.03 5.32 2.92 2.23 6.85 3.43 3.92 1.2 8.02 1.2 4.8 0 8.95-1.6 4.15-1.6 6.7-4.48 2.55-2.87 2.55-6.77 0-3.95-2.65-6.5t-6.82-4.03q-4.18-1.47-8.73-2.27-7.15-1.25-12.82-3.4-5.68-2.15-8.98-6.08-3.3-3.92-3.3-10.37 0-6.05 3.5-10.5t9.23-6.9q5.72-2.45 12.37-2.45 5.45 0 10.65 1.7t9.18 4.95q3.97 3.25 5.72 7.95l-6.65 2.4q-1.1-3.15-4.02-5.38-2.93-2.22-6.83-3.4-3.9-1.17-8.05-1.17-4.75-.05-8.87 1.57-4.13 1.63-6.68 4.5-2.55 2.88-2.55 6.73 0 4.5 2.38 6.92 2.37 2.43 6.47 3.63 4.1 1.2 9.25 2.15 6.7 1.15 12.45 3.57 5.75 2.43 9.25 6.45 3.5 4.03 3.5 9.93 0 6-3.5 10.47-3.5 4.48-9.22 6.93-5.73 2.45-12.48 2.45"></path><rect width="51" height="72.35" x="-25.5" y="-36.17" fill="none" rx="0" ry="0" transform="translate(536.24 109.28)"></rect><path fill="#122023" d="M572.337 144.96q-1.65 0-2.8-1.18-1.15-1.17-1.15-2.87 0-1.6 1.15-2.78 1.15-1.17 2.8-1.17 1.7 0 2.88 1.17 1.17 1.18 1.17 2.78 0 1.7-1.17 2.87-1.18 1.18-2.88 1.18"></path><rect width="8" height="8" x="-4" y="-4" fill="none" rx="0" ry="0" transform="translate(572.89 141.46)"></rect><path fill="#122023" d="M631.987 112.71v30.95h-7v-29.55q0-4.1-2-7.45-2-3.35-5.35-5.35-3.35-2-7.45-2-4.05 0-7.42 2-3.38 2-5.38 5.35-2 3.35-2 7.45v29.55h-7v-50h7v6.9q2.65-3.8 6.9-6.05t9.25-2.25q5.65 0 10.3 2.75t7.4 7.4q2.75 4.65 2.75 10.3"></path><rect width="43.6" height="51.4" x="-21.8" y="-25.7" fill="none" rx="0" ry="0" transform="translate(610.69 118.46)"></rect><path fill="#122023" d="M662.987 144.96q-6.9 0-12.57-3.55-5.68-3.55-9.05-9.53-3.38-5.97-3.38-13.22 0-5.5 1.95-10.28 1.95-4.77 5.38-8.4 3.42-3.62 7.97-5.67t9.7-2.05q5.55 0 10.23 2.2 4.67 2.2 8.05 6.15 3.37 3.95 5.1 9.25 1.72 5.3 1.42 11.45h-42.4q.6 4.75 3.03 8.5 2.42 3.75 6.2 5.92 3.77 2.18 8.37 2.23 5 0 9.03-2.6 4.02-2.6 6.47-7.15l7.1 1.65q-3 6.65-9.05 10.87-6.05 4.23-13.55 4.23m-17.8-29.3h35.55q-.35-4.65-2.82-8.53-2.48-3.87-6.38-6.2-3.9-2.32-8.55-2.32t-8.5 2.27q-3.85 2.28-6.3 6.15-2.45 3.88-3 8.63"></path><rect width="49.95" height="52.7" x="-24.98" y="-26.35" fill="none" rx="0" ry="0" transform="translate(663.46 119.11)"></rect><path fill="#122023" d="M721.037 100.66h-11.95l-.05 43h-7l.05-43h-9.05v-7h9.05l-.05-15.7h7l.05 15.7h11.95Z"></path><rect width="28" height="65.7" x="-14" y="-32.85" fill="none" rx="0" ry="0" transform="translate(707.54 111.31)"></rect><path fill="#2ecc40" fill-rule="evenodd" d="m90.707 17.116.103-.052.052-.026.078-.078.052-.052q0-.052.052-.078v-.103l.025-.026v-.078l.026-.052v-.103l.026-.052v-.156l.026-.13.104-.077-.078-.052v.13l-1.477 1.114zm.57-1.089c1.01.363 1.322-.57 1.814-1.166l.13-.104.13-.13zm34.729 137.36c23.662-28.094 38.486-60.101 41.519-97.059a75.16 75.16 0 0 0-3.784-32.267c-1.244-3.42-2.281-7.075-5.34-9.485q-5.13-4.147-11.066-7.153a46.65 46.65 0 0 0-27.057-4.899c-9.227 1.14-17.235 5.028-24.621 10.445l-.104.078c-.26.181-.466.362-.26.751.39.26.649 0 .96-.181 5.494-2.592 11.144-4.795 17.183-5.624 12.544-1.737 23.196 1.607 31.178 11.792 6.687 8.5 9.2 18.53 10.108 29.027.959 10.885.051 21.693-2.488 32.293-9.46 39.393-29.027 71.971-63.704 94.597q-.052-.078 0 .026c1.97.751 3.965 1.425 5.883 2.228 1.166.493 2.073.363 3.188-.259a111.443 111.443 0 0 0 28.379-24.284" vector-effect="non-scaling-stroke"></path><path fill="#2ecc40" fill-rule="evenodd" d="M110.052 148.202c19.49-23.714 31.54-50.538 33.433-81.457.777-12.363-.726-24.44-7.076-35.403-5.96-10.263-14.824-16.094-26.953-16.535-7.31-.26-14.1 1.685-20.734 4.484-.052-1.866-.907-.882-1.555-.415a121.81 121.81 0 0 0-26.124 24.958 163.277 163.277 0 0 0-27.861 53.57c-2.125 6.998-3.629 14.1-4.743 21.304-.181 1.244.104 1.607 1.4 1.633 5.131.078 5.131.13 5.857-4.924l.181-1.503a176.236 176.236 0 0 1 27.058-65.415 142.544 142.544 0 0 1 22.184-26.358c.83.622-.57 1.063-.259 1.633q0 .052.078.13h.467l1.036-.311c6.454-1.788 12.959-2.333 19.49-.648 11.403 2.929 18.271 10.755 22.366 21.355 4.847 12.518 4.82 25.451 2.8 38.461a129.585 129.585 0 0 1-19.827 50.798c-9.641 14.772-21.356 27.472-37.113 35.972-.208.13-.519.26-.363.622l.363.208c1.425.518 2.902.959 4.25 1.633 1.659.803 2.955.518 4.561-.39a101.076 101.076 0 0 0 27.084-23.402m35.454 8.215a217.703 217.703 0 0 0 44.163-84.411 14.514 14.514 0 0 0-.208-9.434 126.993 126.993 0 0 0-8.604-19.386 173.644 173.644 0 0 1-1.892 19.179 189.194 189.194 0 0 1-23.636 64.196c-9.927 17.053-21.926 32.422-37.217 45.096a111.443 111.443 0 0 1-14.125 9.796c2.54.96 4.769 1.737 6.946 2.67 1.322.596 2.358.388 3.576-.363a132.177 132.177 0 0 0 30.997-27.343" vector-effect="non-scaling-stroke"></path><path fill="#2ecc40" fill-rule="evenodd" d="M97.743 126.902c-.285.518-.622 1.01-.726 1.555a67.384 67.384 0 0 1-6.427 19.723c.44-.078.726-.052.855-.156q1.814-1.995 3.55-4.095a121.81 121.81 0 0 0 26.1-57.898c1.813-11.326 1.658-22.626-1.996-33.64-5.002-15.188-16.717-25.529-34.133-24.103-4.354.363-5.91 1.451-7.542 5.96l.156.078 1.088.078c13.788.13 23.17 6.946 28.742 19.257 4.872 10.807 5.235 22.262 3.81 33.795a106.26 106.26 0 0 1-13.477 39.446" vector-effect="non-scaling-stroke"></path><path fill="#2ecc40" fill-rule="evenodd" d="M81.648 70.298q.155-.363.181-.622a2.592 2.592 0 0 0-.233-1.036 33.692 33.692 0 0 0-9.175-12.7c-1.348-1.088-3.81-1.477-3.913-3.24-.104-1.606 1.296-3.29 1.892-4.975.362-1.063.777-1.219 1.84-.83q8.863 3.188 14.047 11.04c6.012 9.072 7.464 19.231 6.971 29.831-.051 1.192 0 2.281.415 3.37a72.568 72.568 0 0 1 3.888 17.001c.907-.518.88-1.348 1.088-1.996a88.118 88.118 0 0 0 3.318-14.772c1.373-10.574 1.166-21.07-2.877-31.152C95.15 50.446 88.593 43.37 78.07 40.7c-3.758-.959-3.732-.933-5.883 2.255a194.378 194.378 0 0 0-17.157 31.23 178.827 178.827 0 0 0-13.296 44.629c-.181 1.218 0 1.555 1.193 1.477a33.692 33.692 0 0 1 4.561 0c1.53.13 1.944-.57 2.151-1.944 1.451-8.915 3.758-17.623 6.402-26.228 2.177-7.1 5.598-13.762 6.945-21.148.648-3.628 1.84-7.101 2.696-10.678.388-1.58.88-1.918 2.436-1.036a51.834 51.834 0 0 1 13.529 11.04m114.216 20.216c-16.613 38.953-38.306 73.5-73.993 97.551 2.747 1.037 5.39 1.97 7.982 3.032 1.037.441 1.814.26 2.747-.362a139.952 139.952 0 0 0 19.957-15.94c18.141-17.364 32.344-37.605 44.292-59.557q.648-1.14.622-2.462a158.094 158.094 0 0 0-1.607-22.262m-54.866 104.652c3.187 1.193 6.038 2.151 8.811 3.344 1.4.596 2.385.285 3.55-.519 13.089-9.148 24.285-20.293 34.704-32.266.7-.804 1.036-1.737 1.347-2.696a150.319 150.319 0 0 0 5.599-21.303c.155-.83.44-1.737-.104-2.8-14.98 21.641-31.645 41.364-53.907 56.24M70.71 30.567a101.076 101.076 0 0 0-15.058 11.611A132.177 132.177 0 0 0 25.745 86.86q-6.35 15.291-8.553 31.67c-.052.597-.44 1.634.26 1.737q2.384.389 4.716 0c1.089-.207.778-1.555.881-2.41.804-6.324 2.203-12.518 3.991-18.608Q35.567 70.48 54.538 47.18q7.413-8.941 16.173-16.587" vector-effect="non-scaling-stroke"></path><path fill="#2ecc40" fill-rule="evenodd" d="m50.187 45.573-.414-.466a25.917 25.917 0 0 0-6.661 4.795 112.739 112.739 0 0 0-35.403 66.477c-.622 4.25-.648 4.198 3.11 4.146 1.089-.051 1.555-.337 1.555-1.451q.104-1.866.467-3.654a121.81 121.81 0 0 1 31.256-63.756q2.98-3.11 6.09-6.116" vector-effect="non-scaling-stroke"></path></svg>
</svg>