<?xml version="1.0" encoding="utf-8"?>
<!-- Generator: Adobe Illustrator 20.1.0, SVG Export Plug-In . SVG Version: 6.00 Build 0)  -->
<svg version="1.1" id="Layer_1" xmlns="http://www.w3.org/2000/svg" xmlns:xlink="http://www.w3.org/1999/xlink" x="0px" y="0px"
   viewBox="0 0 296.4 71.1" style="enable-background:new 0 0 296.4 71.1;" xml:space="preserve">
<style type="text/css">
  .st0{fill:#333;}
  .st1{fill:#ACB5BF;}
  .st2{fill:#49515B;}
  .st3{fill:#2B3238;}
  .st4{fill:#A4ABB2;}
  .st5{fill:url(#SVGID_1_);}
  .st6{fill:url(#SVGID_2_);}
  .st7{fill:url(#SVGID_3_);}
  .st8{fill:url(#SVGID_4_);}
</style>
<path class="st0" d="M296.4,54.1c-1.2,0.1-2.3,0.3-3.5,0.2c-3.2-0.3-4.4-1.4-4.5-4.7c-0.1-3.5,0-7-0.1-10.5
  c-0.1-3.9-1.6-5.6-4.8-5.7c-3.2-0.1-5.2,2-5.2,5.9c-0.1,4-0.3,8,0.1,12c0.2,3.1-1.3,3.2-3.6,3.1c-2.1,0-3.8,0.1-3.7-3
  c0.2-10,0-19.9,0.1-29.9c0-1.4-1.1-3.6,1.6-3.9c2.5-0.3,4.9,1.2,5.3,3.5c0.3,1.3,0.1,2.6,0.1,4c0,3.9,0,3.8,3.7,3.1
  c2-0.4,4.2-0.3,6.3-0.1c4,0.4,6,3,7,6.8c0.2,0.9,0.7,1.6,1.1,2.4C296.4,42.7,296.4,48.4,296.4,54.1z"/>
<path class="st0" d="M73.3,36.1c0-5.2,0.1-10.3,0-15.5c0-1.9,0.6-2.8,2.5-2.6c1.2,0.1,2.3,0.1,3.5,0c1.5,0,2.1,0.6,2.1,2.1
  c-0.1,3,0.1,6-0.1,9c-0.1,2,0.4,3.1,2.7,2.9c3.2-0.2,6.3-0.1,9.5,0c1.7,0,2.3-0.7,2.3-2.4c-0.1-3,0.1-6-0.1-9
  c-0.1-2.4,1.1-2.8,3.1-2.5c3.1,0.5,5.1,2.5,5.2,5.8c0.1,9.5,0,19,0.1,28.4c0,1.5-0.6,2.1-2,2.1c-1,0-2-0.1-3,0
  c-2.7,0.3-3.5-0.8-3.3-3.5c0.2-3.1-0.1-6.3,0.1-9.5c0.1-2.3-0.9-3-2.9-2.7c-0.5,0.1-1,0-1.5,0C88.3,38.9,85.1,39,82,39
  c-0.2,2.9-0.5,5.8-0.6,8.8c-0.1,2.3-0.9,4.3-3,5.4c-1.3,0.6-2.8,0.7-4.2,1c-0.3-1.2-0.7-2.4-0.7-3.7C73.3,45.7,73.3,40.9,73.3,36.1z
  "/>
<path class="st0" d="M175.4,35.8c0-5,0.1-10,0-15c-0.1-2.2,0.6-3.1,2.8-2.8c1,0.1,2,0.1,3,0c1.8-0.1,2.3,0.7,2.3,2.4
  c-0.1,3.2,0,6.3,0,9.5c0,1.4,0.5,2.1,2,2.1c3.5,0,7,0,10.5,0c1.7,0,2.3-0.9,2.3-2.5c0-3,0.1-6,0-9c-0.1-2.6,1.3-2.7,3.2-2.3
  c2.8,0.6,4.8,2.5,4.9,5.5c0.1,9.5,0,19,0.1,28.4c0,1.5-0.6,2.1-2.1,2.1c-1.2,0-2.3-0.1-3.5,0c-2,0.1-2.6-0.8-2.5-2.7
  c0.1-3.3-0.1-6.7,0.1-10c0.1-2.2-0.7-2.9-2.9-2.9c-3.2,0.1-6.3,0.1-9.5,0c-2.1-0.1-2.5,0.9-2.5,2.7c0.1,2.2,0,4.3,0,6.5
  c0,2.6-1.3,4.4-3.5,5.6c-3.1,1.6-4.4,0.8-4.5-2.8C175.4,45.8,175.4,40.8,175.4,35.8z"/>
<path class="st0" d="M231.6,39.7c0,1.3,0,2.7,0,4c0,4.6-1.8,8.2-6,10c-4.8,2-9.8,2.3-14.2-1c-4.6-3.4-3.8-10.8,1.4-13.3
  c1.7-0.8,3.8-1,5.7-1.4c1.6-0.4,3.3-0.5,4.9-1c0.6-0.2,1.5-1.2,1.4-1.7c-0.2-0.8-1-2.1-1.6-2.1c-2.1,0-4.7-0.2-6,1
  c-1.8,1.6-3.5,1.7-5.4,1.7c-2.5-0.1-3-0.9-1.5-3.1c1-1.5,2.3-2.9,3.8-3.7c3.6-1.9,7.6-2.4,11.6-1.1c4.5,1.4,5.9,3.1,6,7.8
  C231.6,37,231.6,38.3,231.6,39.7z M224.7,43.6c-0.2-0.3-0.8-1.4-1.2-1.4c-2.1,0.2-4.3,0.4-6.2,1.3c-1,0.5-1.9,2.3-1.9,3.5
  c0,0.9,1.4,2.2,2.4,2.5C221.4,50.9,224.6,48.3,224.7,43.6z"/>
<path class="st0" d="M106.3,41.1c0-8.2,5.2-13.6,13.2-13.6c8.1,0,13.6,5.6,13.6,13.9c-0.1,7.9-5.6,13.4-13.5,13.4
  C111.6,54.7,106.3,49.3,106.3,41.1z M125.8,40.8c-0.1-0.8-0.1-2.2-0.4-3.4c-0.7-2.8-3-4.5-5.8-4.5c-3.8,0-5.9,2.7-6.2,7.5
  c-0.2,5.2,1.7,8.3,5.2,8.8C123.1,49.8,125.7,46.9,125.8,40.8z"/>
<path class="st0" d="M143.8,54.3c-2.3,0-4.7,0-7,0c-1.9,0-2.1-1-1.7-2.6c0.6-2.6,2.3-3.4,4.7-3.5c3,0,6,0,9,0c1.6,0,3.2-0.1,3.1-2.3
  c-0.1-1.7-1.6-1.8-3-1.8c-2.7,0-5.3,0.1-8-0.1c-4.3-0.3-6.6-3.4-6.5-8.4c0.1-4.6,2.5-7.6,6.7-7.8c4.3-0.2,8.6-0.1,13-0.1
  c2.5,0,3.4,1.4,2.2,3.3c-0.8,1.2-2.4,2.3-3.8,2.6c-2.1,0.4-4.3,0.1-6.5,0.1c-1,0-2,0-3,0c-1.5,0-2.9,0.5-2.5,2.2
  c0.2,0.7,1.5,1.6,2.4,1.7c2.5,0.2,5,0,7.5,0.1c5,0.2,7.4,2.8,7.5,7.9c0.1,5.3-2.5,8.2-7.6,8.4C148.1,54.4,145.9,54.3,143.8,54.3z"/>
<path class="st0" d="M261.1,54.3c-0.3,0-0.7,0-1,0c-7.7,0.5-12-0.9-12.9-12.4c-0.2-3,0.9-6.2,1.9-9.1c1.1-3.1,3.8-4.6,7-4.8
  c3.5-0.2,7-0.1,10.5-0.2c1.9,0,2.2,0.9,2,2.5c-0.5,2.7-1.8,4.1-4.5,4.5c-1.3,0.2-2.7,0.1-4,0.1c-2.3,0-4.8,0.4-5.3,2.8
  c-0.5,2.5-0.2,5.2,0.5,7.7c0.2,0.9,2.4,1.7,3.7,1.8c2.5,0.3,5,0.2,7.5,0.1c2.9-0.1,2.6,1.9,2.6,3.7c0,1.7,0.1,3.4-2.5,3.3
  C264.7,54.2,262.9,54.3,261.1,54.3z"/>
<path class="st0" d="M233.6,34c0-4.7,0.1-9.3,0-14c-0.1-2.4,1.1-2.9,3-2.6c2.9,0.4,4.4,1.9,4.7,4.9c0.1,0.8,0.1,1.7,0,2.5
  c-0.1,1.8,0.5,2.7,2.5,2.8c0.9,0,2.5,0.6,2.7,1.3c0.5,1.5-0.2,3.3-1.9,3.4c-3.8,0.3-3.3,2.8-3.3,5.3c0.1,2,0,4,0,6
  c0,2.5-0.4,5,3.6,4.8c2.6-0.1,1.5,2.4,1.7,3.8c0.3,1.7-0.7,2.4-2.3,2.3c-1.8-0.1-3.7-0.2-5.4-0.5c-3.6-0.7-5.1-2.4-5.2-6.2
  C233.5,43.3,233.6,38.6,233.6,34z"/>
<path class="st0" d="M160.2,34.2c0-4.3-0.1-8.6,0-12.9c0-1.3-0.9-3.2,1.4-3.7c2.3-0.5,5.1,0.9,5.6,3c0.3,1.3,0.3,2.6,0.2,4
  c-0.2,2.2,0.3,3.5,2.9,3.3c0.9-0.1,1.9,0.8,2.8,1.2c-0.8,1.1-1.6,3.2-2.4,3.2c-4,0.2-3.3,2.8-3.3,5.2c0,2,0,4,0,6c0,3.8,0,3.9,4,5
  c2.5,0.7,1.4,2.6,1.6,4c0.2,1.7-0.9,1.9-2.2,1.9c-1.5,0-3,0-4.5-0.1c-4.6-0.4-6.2-2.1-6.2-6.6C160.2,43.1,160.2,38.6,160.2,34.2z"/>
<ellipse class="st1" cx="23.4" cy="36" rx="23.3" ry="5.5"/>
<path id="Front" class="st2" d="M34.7,53.2l-21.9-3.8l8.3-47.5c0.2-1.1,1.2-1.8,2.2-1.6l20.2,2.5L34.7,53.2z"/>
<path id="Side" class="st3" d="M38.3,53.3l-4.9-0.2l10-50.3h0.1l6.1,8.9c0.1,0.2,0.2,0.5,0.2,0.7l-6.1,33.7l-1.9,3.8L38.3,53.3z"/>
<path class="st4" d="M26.1,8.1L36,9.6c0.8,0.1,1.5-0.4,1.7-1.1l0,0c0.2-0.8-0.4-1.7-1.2-1.8l-9.8-1.5c-0.8-0.1-1.5,0.4-1.7,1.2l0,0
  C24.7,7.2,25.3,8,26.1,8.1z"/>
<path class="st4" d="M24.8,14.2l9.9,1.6c0.8,0.1,1.5-0.4,1.6-1.1v-0.1c0.2-0.8-0.4-1.6-1.2-1.7l-9.9-1.5c-0.7-0.1-1.5,0.4-1.6,1.1
  l0,0C23.4,13.3,24,14.1,24.8,14.2z"/>
<path id="Front_1_" class="st2" d="M23.2,50.1L4.3,51.7L1.1,14.1c-0.1-1.1,0.6-2,1.7-2.2l17-2.7L23.2,50.1z"/>
<path id="Side_1_" class="st3" d="M23.2,50.1l6.7-0.6L27,15.6c0-0.6-0.3-1.1-0.8-1.4l-6.4-4.8L23.2,50.1z"/>
<path class="st4" d="M15.8,17.1l-9.4,1.8c-0.8,0.2-1.5-0.4-1.6-1.2l0,0c-0.1-0.7,0.4-1.3,1.1-1.4l9.4-1.8c0.8-0.2,1.6,0.4,1.6,1.3
  l0,0C16.9,16.4,16.4,17,15.8,17.1z"/>
<path class="st4" d="M16.3,23L7,24.8c-0.8,0.2-1.6-0.4-1.6-1.2l0,0c-0.1-0.7,0.4-1.4,1.1-1.5l9.3-1.8c0.8-0.2,1.6,0.4,1.7,1.3l0,0
  C17.5,22.3,17,22.9,16.3,23z"/>
<g>
  <radialGradient id="SVGID_1_" cx="23.5" cy="50.4649" r="22.114" gradientUnits="userSpaceOnUse">
    <stop  offset="0.5903" style="stop-color:#333"/>
    <stop  offset="0.5906" style="stop-color:#333"/>
    <stop  offset="1" style="stop-color:#D5DAE0"/>
  </radialGradient>
  <path class="st5" d="M47,38c0-2.1-0.1-4.2-0.4-6.3c-0.3-2.6-0.8,1.3-2,1.4s-1.8-4.4-3.7-3c-2.1,1.6-4.2,5.3-5.2,7
    c-0.8,1.4-3.1,3.3-4.4,3.9c-1.2,0.6-0.8,4.7-2.2,3.9c-4-2.3-6-2.9-8.6-2.9c-2.5,0-1.1,4.2-3,4.4c-3.9,0.4-5.7-4.7-7.9-6.4
    c-2-1.5-3.6-0.4-4.5-0.5c-2.2-0.4-5-5-5.1-3.8c0,0.7,0,1.5,0,2.3c0,18.3,10.5,33.1,23.5,33.1S47,56.3,47,38z"/>
  <radialGradient id="SVGID_2_" cx="23.5" cy="50.4649" r="22.114" gradientUnits="userSpaceOnUse">
    <stop  offset="0.5903" style="stop-color:#333"/>
    <stop  offset="0.5906" style="stop-color:#333"/>
    <stop  offset="1" style="stop-color:#D5DAE0"/>
  </radialGradient>
  <path class="st6" d="M47,38c0-2.1-0.1-4.2-0.4-6.3c-0.3-2.6-0.8,1.3-2,1.4s-1.8-4.4-3.7-3c-2.1,1.6-4.2,5.3-5.2,7
    c-0.8,1.4-3.1,3.3-4.4,3.9c-1.2,0.6-0.8,4.7-2.2,3.9c-4-2.3-6-2.9-8.6-2.9c-2.5,0-1.1,4.2-3,4.4c-3.9,0.4-5.7-4.7-7.9-6.4
    c-2-1.5-3.6-0.4-4.5-0.5c-2.2-0.4-5-5-5.1-3.8c0,0.7,0,1.5,0,2.3c0,18.3,10.5,33.1,23.5,33.1S47,56.3,47,38z"/>
</g>
<g>
  <linearGradient id="SVGID_3_" gradientUnits="userSpaceOnUse" x1="0" y1="50.465" x2="47" y2="50.465">
    <stop  offset="0" style="stop-color:#A6B7CE"/>
    <stop  offset="0.8655" style="stop-color:#333"/>
  </linearGradient>
  <path class="st7" d="M47,37.9c0-2.1-0.1-4.2-0.4-6.3c-0.4-2.6-0.8,1.3-2,1.5c-1.2,0.1-1.8-4.4-3.7-3c-2.1,1.6-4.2,5.3-5.2,7
    c-0.8,1.4-3.1,3.3-4.4,3.9c-1.2,0.6-0.8,4.7-2.2,3.9c-4-2.3-6-2.9-8.6-2.9c-2.5,0-1.1,4.2-3,4.4c-3.9,0.4-5.7-4.7-7.9-6.4
    c-2-1.5-3.6-0.4-4.5-0.5c-2.2-0.4-5-5-5.1-3.8C0,36.4,0,37.1,0,37.9c0,18.3,10.5,33.2,23.5,33.2S47,56.3,47,37.9z"/>
  <linearGradient id="SVGID_4_" gradientUnits="userSpaceOnUse" x1="23.5" y1="71.1" x2="23.5" y2="29.83">
    <stop  offset="0" style="stop-color:#7E8B9D"/>
    <stop  offset="0.6241" style="stop-color:#333;stop-opacity:0"/>
  </linearGradient>
  <path class="st8" d="M47,37.9c0-2.1-0.1-4.2-0.4-6.3c-0.4-2.6-0.8,1.3-2,1.5c-1.2,0.1-1.8-4.4-3.7-3c-2.1,1.6-4.2,5.3-5.2,7
    c-0.8,1.4-3.1,3.3-4.4,3.9c-1.2,0.6-0.8,4.7-2.2,3.9c-4-2.3-6-2.9-8.6-2.9c-2.5,0-1.1,4.2-3,4.4c-3.9,0.4-5.7-4.7-7.9-6.4
    c-2-1.5-3.6-0.4-4.5-0.5c-2.2-0.4-5-5-5.1-3.8C0,36.4,0,37.1,0,37.9c0,18.3,10.5,33.2,23.5,33.2S47,56.3,47,37.9z"/>
</g>
</svg>
