<?xml version="1.0" encoding="utf-8"?>
<!DOCTYPE svg PUBLIC "-//W3C//DTD SVG 1.0//EN" "http://www.w3.org/TR/2001/REC-SVG-20010904/DTD/svg10.dtd">
<svg version="1.0" xmlns="http://www.w3.org/2000/svg" width="512px" height="512px" viewBox="0 0 512 512" preserveAspectRatio="xMidYMid meet">
 <g fill="#000000">
  <path d="M380.8 509.5 c-8.1 -3 -10.5 -6 -44.7 -57.3 l-33.6 -50.4 0 -5.8 c0.1 -4.7 0.6 -6.5 2.9 -9.8 4.7 -6.9 8.8 -8.2 25.4 -8.2 l14.2 0 0 -18.2 0 -18.3 -66.2 66.1 c-72.3 72.1 -69.5 69.7 -81.2 69.9 -11.8 0.1 -7.6 3.7 -94.8 -83.3 -57.9 -57.8 -80.4 -80.9 -82.4 -84.6 -2.1 -3.9 -2.8 -6.4 -2.8 -11.1 -0.1 -12 -6.5 -4.9 104.8 -116.2 105.5 -105.8 103.9 -104.3 108.6 -101.3 1 0.6 2 0.4 3.2 -0.7 1.6 -1.4 1.8 -1.3 2.9 1.3 0.6 1.6 0.9 4.9 0.6 7.3 -0.5 4.3 -2.1 6 -100.5 104.5 -55 55.1 -100.5 101.1 -101.1 102.4 -0.9 1.6 -0.9 2.8 0 4.5 1.4 2.8 151 152.9 156.3 156.8 2.1 1.6 4.6 2.9 5.5 2.9 0.9 0 33.4 -31.8 72.3 -70.7 l70.8 -70.8 0 -6 0 -6 -29.3 29.3 -29.3 29.2 -5.8 0 c-7.3 0 -9.2 -1.1 -10.7 -5.9 -2.6 -8.9 -3.2 -8.1 37.7 -49.1 l37.4 -37.6 0 -36.5 c0 -39.7 0.3 -42.7 5.5 -49.5 1.5 -2 4.1 -4.4 5.9 -5.5 l3.1 -1.9 -3.5 0.7 c-6.2 1.4 -17.2 0.9 -22.2 -1 -21.4 -8.2 -20.8 -44.5 0.9 -52.3 4.7 -1.6 17.3 -1.8 22.5 -0.2 5.1 1.5 12.1 7.7 14.7 13.1 1.7 3.4 2.1 6.2 2.1 13.3 0 10.5 -2.5 17.2 -8.3 22 l-3.6 2.9 22.7 -0.3 c12.5 -0.1 23.3 -0.4 24 -0.7 0.7 -0.3 1.2 -2.2 1.2 -4.7 0.1 -2.4 0.7 -7 1.4 -10.3 l1.3 -6 -34.4 -34.6 -34.5 -34.6 -5.6 1.3 c-7.1 1.7 -30.8 1.8 -38.6 0.2 l-5.8 -1.1 -93.2 93.2 -93.3 93.3 1.3 5.6 c1.7 7.3 1.8 29.8 0.1 37.9 l-1.3 6.2 34.5 34.5 34.6 34.4 6.5 -1.4 c8.2 -1.7 28.5 -1.8 36.7 -0.1 l6.2 1.3 11.8 -11.9 c6.5 -6.5 13 -12.5 14.5 -13.3 4 -2.1 11 -1.8 14.2 0.7 2.3 1.8 2.6 2.7 2.6 8.7 l0 6.6 -15.7 15.8 c-11.9 12 -16.7 16.1 -19.6 17 -3.9 1.2 -4.1 1.2 -19.7 -3.2 -9.7 -2.8 -20.3 -2.3 -31.3 1.5 -14.1 4.9 -10.1 7.6 -57.6 -39.9 l-41.3 -41.3 0.5 -6.9 c0.3 -3.8 1.5 -10.3 2.7 -14.4 2.6 -9.2 2.3 -21.3 -0.9 -30.4 -1.3 -3.5 -2.1 -8.4 -2.1 -12 l0 -6.1 99.8 -99.8 99.9 -99.9 6.9 0.5 c3.8 0.2 10 1.4 13.9 2.6 9.1 2.8 18.9 2.8 28 0 3.9 -1.2 10.1 -2.4 13.9 -2.6 l6.9 -0.5 41.3 41.4 41.4 41.3 0 6 c0 3.3 -0.9 8.6 -2 11.8 -1.1 3.2 -2.2 8 -2.6 10.6 -0.6 4.5 -0.5 4.8 3 7.5 l3.6 2.7 0 -4.8 c0 -9.7 5.8 -15.3 15.8 -15.3 11.5 0 16.2 4.8 16.2 16.5 0 8.3 -2 12.3 -7.3 14.8 -3.9 1.9 -10.5 2.2 -15.6 0.7 -3.1 -0.9 -3.3 -0.8 -2.7 1.3 0.3 1.2 0.6 6.5 0.6 11.7 l0 9.5 17.6 -17.6 c14.3 -14.3 17.7 -18.2 17.7 -20.4 0 -2.3 -12.7 -15.4 -78.4 -81.2 -43.1 -43.1 -79.6 -79 -81 -79.8 -2.3 -1.2 -2.9 -1.2 -5.5 0.5 -1.6 1 -15 14 -29.9 28.9 l-27 27.1 -6.6 0 c-7.5 0 -8.6 -0.6 -6.2 -3.2 1.3 -1.4 1.4 -2.1 0.5 -3 -3.6 -3.6 -1.9 -5.6 28.6 -36 20.4 -20.4 30.9 -30.2 33.6 -31.3 6 -2.5 15.8 -2.1 22 0.9 4.1 2 21 18.5 84.7 82.3 87.5 87.6 83.5 83.1 83.3 95.3 -0.1 10.3 -2 12.9 -30.9 42 l-26.5 26.6 0 64.2 0 64.2 14.2 0 c12.4 0 14.7 0.3 18.6 2.1 7.9 3.9 12.2 14.3 9 21.9 -2.8 6.7 -66.8 100.9 -70.3 103.6 -1.9 1.4 -5.2 3.2 -7.2 4 -4.9 1.7 -15.7 1.6 -20.5 -0.1z m16.1 -18.9 c1.3 -1.1 16.2 -22.9 33.2 -48.3 23.5 -35.1 30.4 -46.3 29.3 -46.7 -0.9 -0.3 -9.2 -0.6 -18.5 -0.6 -15.6 0 -17.1 -0.2 -18.9 -2 -2 -2 -2 -3.3 -2 -94.5 0 -99.5 0.1 -96.8 -4.9 -99.5 -2.6 -1.3 -45.6 -1.3 -48.2 0 -5 2.7 -4.9 0 -4.9 99.5 0 91.2 0 92.5 -2 94.5 -1.8 1.8 -3.3 2 -18.9 2 -9.3 0 -17.6 0.3 -18.5 0.6 -1.1 0.4 5.8 11.6 29.3 46.7 17 25.4 31.9 47.2 33.2 48.3 4.4 3.9 7.5 3.9 11.8 0z m-50.4 -334.1 c3.2 -3.1 3.1 -4 -0.5 -7.6 -2.6 -2.7 -3.2 -2.9 -5.2 -1.8 -2.7 1.4 -4.7 3.9 -4.8 5.7 0 1.8 4.6 6.2 6.5 6.2 0.9 0 2.7 -1.1 4 -2.5z"/>
  <path d="M191.2 449.1 c-6.7 -1.7 -10.2 -7.4 -10.2 -16.3 0 -11.1 5.7 -16.1 17.7 -15.6 6.4 0.3 7.6 0.7 10.3 3.3 7.1 6.8 6.3 21.8 -1.5 26.9 -2.9 1.9 -11.8 2.8 -16.3 1.7z"/>
  <path d="M155.1 350.4 c-5.8 -2.9 -10.4 -8.4 -12.2 -14.4 -0.6 -2 -1 -7.7 -0.8 -12.7 0.4 -7.9 0.8 -9.5 3.4 -13.9 1.9 -3 4.9 -6 7.9 -7.9 4.5 -2.7 5.8 -3 15.1 -3.3 8.8 -0.3 10.8 -0.1 14.8 1.8 8.4 4 13.2 11.3 14.3 21.8 1.4 13 -3.6 23.4 -13.5 28.5 -4.8 2.4 -6.6 2.7 -14.6 2.7 -7.8 0 -9.8 -0.4 -14.4 -2.6z m18.4 -20.9 c1.4 -1.3 2.5 -3.1 2.5 -4 0 -2 -4.4 -6.5 -6.3 -6.5 -1.7 0 -6.7 4.8 -6.7 6.3 0 1.6 5.2 6.7 6.7 6.7 0.8 0 2.5 -1.1 3.8 -2.5z"/>
  <path d="M240.8 315 c-28.6 -5.1 -51.8 -26.7 -59.5 -55 -2.7 -10.1 -2.5 -33 0.5 -43.3 6 -20.8 19.6 -37.2 38.6 -46.6 10 -4.9 18.1 -7 31.1 -7.7 23.7 -1.4 44.3 6.2 60 22.1 13.3 13.5 20.2 29.8 21.2 50 1.2 24.9 -5.7 43.5 -22.4 60.2 -6.6 6.6 -9.9 9 -17.5 12.7 -5.1 2.5 -12 5.3 -15.3 6.2 -6.9 1.8 -29.6 2.7 -36.7 1.4z m31.7 -23.5 c16.1 -5.6 29.3 -18.6 35.3 -34.7 3.7 -10 4.5 -17.3 2.8 -25.7 -6.9 -32.9 -39.4 -54.3 -68.6 -45.2 -6.6 2.1 -16.4 7.5 -21.7 12.1 -13.3 11.5 -21.9 32.2 -19.3 46.8 2.7 15.4 10.7 29 22.3 37.8 15.8 11.9 31.9 14.9 49.2 8.9z"/>
  <path d="M217.3 275.6 c-4.4 -4.1 -4.7 -4.7 -5.1 -10.4 -0.4 -5.5 -0.2 -6.3 2.1 -8.6 2.2 -2.2 3.5 -2.6 8.4 -2.6 5.7 0 6 0.2 10.6 4.8 4.6 4.7 4.7 4.9 4.7 11 0 8.4 -1.8 10.2 -10.1 10.2 -5.7 0 -6.2 -0.2 -10.6 -4.4z"/>
  <path d="M243.4 256.8 c-7.4 -3.5 -5.1 -19.8 2.7 -19.8 3.9 0 7.9 -4 7.9 -7.9 0 -4.3 4 -7.1 10.1 -7.1 6.6 0 9.9 2.9 10.6 9.2 1.3 11.4 -5.2 22.4 -15 25.3 -5.8 1.7 -13.2 1.9 -16.3 0.3z"/>
  <path d="M275.4 216.6 c-4.3 -4.2 -4.4 -4.5 -4.4 -10.9 0 -5.9 0.3 -6.8 2.6 -8.6 3.5 -2.7 10.7 -2.8 15 -0.2 5.7 3.5 8.4 8.1 8.4 14.4 0 8 -1.9 9.7 -10.6 9.7 -6.5 0 -6.8 -0.1 -11 -4.4z"/>
  <path d="M51.9 311.7 c-1.8 -1.2 -3.9 -3.4 -4.6 -4.7 -1.8 -3.5 -1.6 -15.4 0.2 -19 4.2 -8.1 20.1 -9.2 27 -2 2.7 2.8 3 3.9 3.3 10.8 0.4 9.1 -1.6 13.4 -7.3 15.8 -5.5 2.2 -14.6 1.8 -18.6 -0.9z"/>
  <path d="M304.7 59.2 c-4.5 -2.8 -7.1 -9.3 -6.4 -16.2 0.9 -10.2 5.3 -14 16.2 -14 11.6 0 16.5 4.8 16.5 16 0 11.3 -4.9 16 -16.5 16 -4.9 0 -7.9 -0.6 -9.8 -1.8z"/>
 </g>
 <g fill="#58b78c">
  <path d="M134.7 360.2 l-35.9 -35.9 1.7 -5.4 c1 -3.2 1.9 -10.4 2.2 -17.9 0.5 -10.7 0.2 -13.8 -1.6 -21 l-2.1 -8.5 94.7 -94.7 94.8 -94.6 7 1.8 c10 2.7 27.6 2.7 38.1 0 l7.9 -2 35.8 35.8 35.8 35.8 -1.7 6.3 c-0.9 3.5 -1.9 9.4 -2.2 13 l-0.7 6.6 -23.5 0.5 c-26.5 0.6 -28.6 1.1 -34.9 8.7 -5.8 6.9 -6.1 9.8 -6.1 50.2 l0 36.6 -36.5 36.5 c-20 20.1 -37.1 37.8 -37.9 39.4 -1.6 3.2 -0.7 7.2 2 9.3 1.3 1 0.9 1.7 -3 5.3 -2.5 2.4 -4.6 5.1 -4.6 6.1 0 2.2 -1.5 2.5 -2.3 0.5 -1.1 -2.7 -5.5 -4.9 -8.4 -4.1 -1.7 0.4 -8.2 6.1 -16.4 14.2 l-13.6 13.5 -5.4 -1.7 c-8.2 -2.5 -25.8 -3.1 -35.5 -1.1 -4.3 0.9 -8.8 1.8 -9.9 2.1 -1.6 0.5 -9.3 -6.7 -37.8 -35.3z m46.4 -12.9 c19.1 -9.8 17.4 -37.3 -2.8 -45.3 -2 -0.7 -6 -1.1 -10.2 -0.8 -13.1 0.7 -22.1 9.5 -22.9 22.3 -0.2 3.5 0.1 7.9 0.7 9.8 4.8 14.3 21.4 20.9 35.2 14z m93.4 -36.7 c3.3 -0.9 10.2 -3.7 15.3 -6.2 15.3 -7.5 28.1 -21.6 34.9 -38.6 10.6 -26.2 4.1 -57.7 -16.2 -78.3 -23.3 -23.7 -59.3 -29 -88.3 -12.9 -17.4 9.7 -29.8 25.6 -35.4 45.1 -2.9 10.1 -3.1 27.6 -0.5 37.3 7.6 28.3 30.9 49.8 59.5 55 6.6 1.2 23.6 0.4 30.7 -1.4z m78 -135 c12.1 -5.1 18.2 -21.4 12.4 -33.3 -8.6 -17.7 -33.6 -19.1 -43.5 -2.5 -4.1 6.8 -5 12.7 -2.9 19.8 1.7 5.9 6.8 12.5 11.6 15 6.7 3.4 15.6 3.8 22.4 1z"/>
 </g>
 <g fill="#46926f">
  <path d="M189.4 460.1 c-4.4 -3.3 -151.9 -151 -155.3 -155.5 -2.4 -3.3 -2.7 -8.5 -0.7 -12.4 0.8 -1.5 46.1 -47.2 100.6 -101.7 54.5 -54.5 99.6 -100 100.1 -101.3 0.5 -1.3 0.5 -3.2 -0.2 -4.9 -0.9 -2.4 -0.5 -3.1 3.6 -7.3 4.5 -4.5 4.9 -4.7 9.2 -4.2 l4.5 0.5 28.2 -28.1 c15.4 -15.4 29.1 -28.5 30.3 -29.1 3 -1.5 6.9 -1.4 10.1 0.3 1.5 0.8 38 36.8 81.2 80 l78.5 78.6 0 5.5 0 5.5 -20.7 20.7 -20.8 20.8 0 -12.6 c0 -17 -1.4 -21.7 -8.6 -28.6 -5.1 -4.8 -5.4 -5.4 -5.4 -10 0 -2.7 0.9 -8.3 2.1 -12.4 1.2 -4.1 2.3 -9.1 2.6 -11.3 l0.5 -3.8 -41.5 -41.5 -41.5 -41.5 -3.8 0.5 c-2.2 0.3 -7 1.5 -10.9 2.6 -9.6 2.9 -24.4 2.9 -34 0 -3.9 -1.1 -8.7 -2.3 -10.9 -2.6 l-3.8 -0.5 -99.9 99.8 c-111.4 111.4 -101.9 100.5 -97.8 112 3.3 9.1 3.7 26.5 0.9 36.4 -1.2 4.1 -2.4 9.3 -2.6 11.5 l-0.5 4 41.3 41.2 c30.4 30.4 42 41.3 43.8 41.5 1.4 0.1 5.7 -0.9 9.5 -2.3 6.1 -2.1 8.7 -2.4 20 -2.3 11.3 0 14 0.3 20.5 2.6 5.6 1.9 8.1 2.3 10.1 1.6 1.4 -0.5 9.6 -8 18.2 -16.7 14.4 -14.5 15.7 -16 15.7 -19.3 0 -2 -0.6 -4.3 -1.4 -5.1 -1.3 -1.2 -0.8 -2.1 3.4 -6.2 4.6 -4.5 5.1 -4.8 7.5 -3.7 6.3 2.9 6 3.1 40.2 -31 l32.3 -32.3 0 12 0 12 -70.8 70.8 -70.7 70.7 -4.6 0 c-3.5 0 -5.5 -0.7 -8.5 -2.9z m17 -17.6 c5.5 -5.4 5.5 -12.9 0 -18.6 -9.3 -9.7 -25.7 0.6 -21.5 13.4 3.1 9.4 14.6 12.1 21.5 5.2z m-138.9 -132.9 c5 -2.1 7.7 -6.9 7.2 -12.9 -1.4 -16.6 -25.8 -15.7 -25.7 1 0 5 1.8 8.2 5.9 11 3.9 2.6 7.7 2.9 12.6 0.9z m388.2 -117.3 c10.1 -4.8 9.5 -20.2 -0.9 -24.1 -13.1 -5 -23.9 11.9 -13.8 21.5 4.7 4.4 9.2 5.2 14.7 2.6z m-133.6 -136.6 c2.2 -1.5 3.9 -3.8 4.9 -6.5 1.3 -3.7 1.3 -4.7 0 -8.4 -4.5 -12.7 -22.6 -11.3 -25.5 2 -0.9 4.1 2.3 11 6.2 13.4 4 2.5 10.3 2.3 14.4 -0.5z"/>
  <path d="M162.7 332.2 c-5.2 -5.4 -2.4 -15.1 4.7 -16.4 7.4 -1.4 13.9 5.7 11.6 12.7 -1.5 4.5 -4.4 6.5 -9.5 6.5 -3.2 0 -4.7 -0.6 -6.8 -2.8z"/>
  <path d="M243.2 296.5 c-23.2 -5.2 -40.7 -24 -45.2 -48.4 -2.8 -15 1.9 -32.8 11.9 -45.1 5.6 -6.8 8.7 -9.5 16.4 -14.3 9.3 -5.7 17.4 -7.9 29.2 -8 18.9 -0.1 34.2 7.1 46.3 21.8 25.3 31 11.4 78.8 -26.7 92.1 -9.3 3.2 -22.7 4 -31.9 1.9z m-10.2 -21.5 c3.5 -3.5 2.6 -7.8 -2.7 -13.2 -5.6 -5.7 -9 -6.2 -13 -2.2 -3.6 3.6 -2.6 7.7 3.1 13.2 5.1 4.8 9.3 5.5 12.6 2.2z m23.7 -21.5 c12.4 -3.7 19.6 -21 11.1 -26.9 -3 -2.1 -5 -2 -8.2 0.5 -1.8 1.4 -2.6 3 -2.6 5 0 3.9 -4 7.9 -7.9 7.9 -3 0 -7.1 3.8 -7.1 6.6 0 2.5 2.2 6.2 4.4 7.2 2.9 1.5 4.5 1.4 10.3 -0.3z m35.3 -37.5 c3.3 -3.3 2.6 -7.4 -2.3 -12.4 -5.2 -5.5 -8.9 -6.6 -12.5 -3.9 -1.9 1.4 -2.8 3.1 -3 5.7 -0.3 3.3 0.2 4.3 4.1 8.2 3.6 3.6 5.1 4.4 8.1 4.4 2.3 0 4.3 -0.7 5.6 -2z"/>
  <path d="M337.4 161.1 c-8.9 -5.4 -4.9 -18.1 5.7 -18.1 4.5 0 8.9 4.8 8.9 9.5 0 4.9 -1.5 7.4 -5.5 9.1 -4.4 1.8 -5.4 1.8 -9.1 -0.5z"/>
 </g>
 <g fill="#fd6f71">
  <path d="M386 496.3 c-0.8 -0.3 -2.6 -1.5 -3.9 -2.7 -2.8 -2.5 -64.2 -94.2 -64.9 -97 -1 -3.9 2 -4.6 20.5 -4.6 16 0 17.5 -0.2 19.3 -2 2 -2 2 -3.3 2 -94.5 0 -99.5 -0.1 -96.8 4.9 -99.5 2.6 -1.4 51.6 -1.4 54.2 0 5 2.7 4.9 0 4.9 99.5 0 91.2 0 92.5 2 94.5 1.8 1.8 3.3 2 19.3 2 18.3 0 21.2 0.6 20.5 4.6 -0.4 2.5 -61.8 94.2 -65.1 97.3 -2.7 2.4 -10.4 3.8 -13.7 2.4z"/>
 </g>
</svg>