<svg width="145" height="34" viewBox="0 0 145 34" fill="none" xmlns="http://www.w3.org/2000/svg">
    <path
        d="M14.4492 33.8783L29.0109 25.5823V0L14.413 8.3139L0 0.0966304V25.6825L4.4805 28.2379V7.75916L14.4166 13.4211L24.534 7.65537V12.8735L14.4492 18.6177V23.7213L24.534 17.9771V23.0269L14.4492 28.7747V33.8783Z"
        fill="#35CA70"></path>
    <path
        d="M39.8932 7.75923H42.6083L47.0235 14.5342L51.4388 7.75923H54.1539V22.075H51.6164V11.8142L47.0344 18.5676H46.951L42.4307 11.8535V22.0893H39.8932V7.75923Z"
        fill="#3A3C4B"></path>
    <path
        d="M57.0104 16.6851C57.0104 13.5929 59.2289 11.0554 62.3573 11.0554C65.8409 11.0554 67.6026 13.7575 67.6026 16.8676C67.6026 17.0323 67.5809 17.4403 67.5628 17.5834H59.5189C59.7871 19.3443 61.0523 20.3249 62.669 20.3249C63.2271 20.3269 63.7793 20.2133 64.2901 19.9914C64.8009 19.7695 65.2588 19.4441 65.6343 19.0365L67.106 20.3249C66.568 20.9808 65.8836 21.505 65.1063 21.8564C64.329 22.2078 63.48 22.3769 62.6255 22.3506C59.4681 22.3327 57.0104 20.06 57.0104 16.6851ZM65.1159 15.9264C64.9491 14.3301 63.9958 13.0632 62.3355 13.0632C60.8021 13.0632 59.7255 14.2299 59.4971 15.9264H65.1159Z"
        fill="#3A3C4B"></path>
    <path d="M70.2779 7.14724H72.7864V22.0893H70.2779V7.14724Z" fill="#3A3C4B"></path>
    <path
        d="M78.5682 20.4108V22.0893H76.0597V7.14724H78.5682V13.0811C79.3766 11.9573 80.5185 11.0554 82.2802 11.0554C84.8721 11.0554 87.3806 13.0811 87.3806 16.7066C87.3806 20.3321 84.8902 22.3148 82.2802 22.3148C81.5511 22.3208 80.8315 22.1503 80.1845 21.8184C79.5374 21.4865 78.9825 21.0033 78.5682 20.4108ZM84.8431 16.6637C84.8431 14.5771 83.4148 13.2064 81.7147 13.2064C80.0146 13.2064 78.5211 14.595 78.5211 16.7066C78.5211 18.8182 80.0146 20.1639 81.7147 20.1639C83.4148 20.1639 84.8431 18.8325 84.8431 16.6637Z"
        fill="#3A3C4B"></path>
    <path d="M90.0958 11.2737H92.6043V22.0821H90.0958V11.2737Z" fill="#3A3C4B"></path>
    <path
        d="M95.2759 16.7064C95.2658 15.9652 95.4054 15.2294 95.6868 14.542C95.9681 13.8547 96.3854 13.2296 96.9144 12.7034C97.4433 12.1772 98.0732 11.7605 98.7672 11.4775C99.4612 11.1945 100.205 11.0509 100.956 11.0553C101.781 11.0198 102.603 11.1692 103.361 11.4921C104.118 11.815 104.792 12.3032 105.332 12.9199L103.777 14.577C103.012 13.7789 102.2 13.2241 100.938 13.2241C99.1256 13.2241 97.7844 14.781 97.7844 16.7064C97.7844 18.6319 99.1329 20.1852 101.047 20.1852C102.229 20.1852 103.099 19.6304 103.885 18.8323L105.4 20.3069C104.863 20.9629 104.18 21.4872 103.403 21.8387C102.626 22.1902 101.778 22.3592 100.924 22.3326C100.176 22.3394 99.4341 22.1981 98.7424 21.9172C98.0507 21.6362 97.4231 21.2212 96.8966 20.6968C96.3701 20.1723 95.9555 19.549 95.6771 18.8636C95.3987 18.1782 95.2623 17.4447 95.2759 16.7064Z"
        fill="#3A3C4B"></path>
    <path
        d="M106.803 16.7065C106.776 15.5599 107.096 14.4314 107.722 13.4653C108.348 12.4992 109.252 11.7396 110.317 11.2835C111.383 10.8275 112.563 10.6959 113.705 10.9056C114.847 11.1152 115.9 11.6566 116.728 12.4604C117.557 13.2642 118.124 14.2938 118.356 15.4175C118.589 16.5411 118.476 17.7077 118.033 18.768C117.59 19.8282 116.837 20.7338 115.87 21.3688C114.902 22.0038 113.765 22.3394 112.603 22.3326C111.847 22.3425 111.097 22.2045 110.395 21.9266C109.694 21.6486 109.055 21.2361 108.516 20.713C107.976 20.1899 107.547 19.5666 107.254 18.8789C106.96 18.1912 106.807 17.4529 106.803 16.7065ZM115.967 16.7065C115.967 14.8025 114.579 13.2242 112.607 13.2242C110.635 13.2242 109.312 14.781 109.312 16.7065C109.312 18.632 110.7 20.1852 112.65 20.1852C114.68 20.1852 115.967 18.6069 115.967 16.7065Z"
        fill="#3A3C4B"></path>
    <path
        d="M121.024 11.2738H123.533V12.9129C124.24 11.9502 125.193 11.0483 126.871 11.0483C127.544 11.0158 128.212 11.1789 128.792 11.5173C129.372 11.8558 129.838 12.3547 130.134 12.9523C130.548 12.3606 131.102 11.8778 131.749 11.5459C132.395 11.2141 133.114 11.0432 133.842 11.0483C136.228 11.0483 137.678 12.5443 137.678 15.182V22.0822H135.169V15.9479C135.169 14.23 134.361 13.3066 132.954 13.3066C131.548 13.3066 130.609 14.2479 130.609 15.9872V22.0893H128.1V15.9264C128.1 14.2479 127.274 13.3066 125.882 13.3066C124.49 13.3066 123.54 14.3302 123.54 16.0087V22.0929H121.032L121.024 11.2738Z"
        fill="#3A3C4B"></path>
    <path
        d="M91.35 9.62387C92.0427 9.62387 92.6043 9.06946 92.6043 8.38555C92.6043 7.70165 92.0427 7.14724 91.35 7.14724C90.6573 7.14724 90.0958 7.70165 90.0958 8.38555C90.0958 9.06946 90.6573 9.62387 91.35 9.62387Z"
        fill="#35CA70"></path>
</svg>
