<?xml version="1.0" encoding="utf-8"?>
<!-- Generator: Adobe Illustrator 23.0.2, SVG Export Plug-In . SVG Version: 6.00 Build 0)  -->
<svg version="1.1" id="Layer_1" xmlns="http://www.w3.org/2000/svg" xmlns:xlink="http://www.w3.org/1999/xlink" x="0px" y="0px"
	 viewBox="0 0 1202.1 309.94" style="enable-background:new 0 0 1202.1 309.94;" xml:space="preserve">
<style type="text/css">
	.st0{fill:#F78E1E;}
</style>
<g>
	<path class="st0" d="M670.32,111.97c-11.77-11.11-25.91-16.7-42.37-16.7c-16.7,0-30.8,5.58-42.57,16.7
		c-11.54,10.91-17.33,24.38-17.33,40.44c0,5.27,0.63,10.28,1.9,15c-0.09-0.12-0.14-0.26-0.2-0.37c-1.12,1.93-2.53,3.77-4.2,5.5
		l-0.35,0.35c-5.3,5.09-11.8,7.77-19.55,7.77c-7.92,0-14.54-2.79-19.89-8.12c-5.35-5.35-8.15-12.21-8.15-20.12
		s2.79-14.57,8.15-19.89c5.35-5.58,11.97-8.35,19.89-8.35c3.57,0,6.88,0.55,9.9,1.7c2.22-9.76,7.05-18.37,14.51-25.79
		c-7.48-3.2-15.6-4.81-24.41-4.81c-16.7,0-30.8,5.58-42.57,16.7c-11.54,10.91-17.33,24.38-17.33,40.44
		c0,16.03,5.79,29.53,17.33,40.65c11.77,10.91,25.88,16.47,42.57,16.47c5.67,0,11.05-0.66,16.15-1.96c0,0,0.03,0,0.12-0.03
		c0.06-0.03,0.17-0.03,0.29-0.06c0.14-0.03,0.29-0.09,0.49-0.14c0.14-0.03,0.32-0.09,0.49-0.14c0.52-0.14,1.21-0.35,1.99-0.6
		c0,0,0,0,0.03,0c0.58-0.2,1.21-0.43,1.9-0.69c0.03,0,0.06-0.03,0.06-0.03c0.66-0.26,1.3-0.52,1.93-0.78h0.03
		c1.24-0.52,2.59-1.12,4.03-1.84c0.63-0.32,1.27-0.66,1.93-1.04c0.69-0.37,1.41-0.78,2.16-1.21c3.02-1.78,6.25-4.03,9.41-6.82
		c1.5-1.32,3.02-2.76,4.49-4.35c5.18-5.58,9.93-12.84,13.01-22.19c-2.79-4.43-4.23-9.56-4.23-15.23c0-7.92,2.79-14.57,8.15-19.89
		c5.35-5.58,11.98-8.35,19.89-8.35c7.92,0,14.54,2.76,19.89,8.35c5.35,5.33,8.15,11.97,8.15,19.89s-2.79,14.54-8.15,20.12
		c-5.35,5.33-11.97,8.12-19.89,8.12c-3.6,0-6.94-0.58-9.99-1.7c-2.25,7.31-6.68,16.93-15.31,25.53c7.69,3.34,16.09,5.04,25.3,5.04
		c16.47,0,30.6-5.56,42.37-16.47c11.74-11.11,17.53-24.61,17.53-40.65C687.85,136.35,682.07,122.88,670.32,111.97z"/>
	<path d="M49.35,206.36V57.11h27.62l51.18,76.44l51.18-76.44h27.62v149.25h-31.05v-91.01l-47.75,70.66l-47.97-70.66v91.01H49.35z"/>
	<path d="M240.79,223.7c3.43,1.07,7.71,1.71,13.06,1.71c4.07,0,7.07-0.86,9.21-2.35c2.14-1.5,3.64-3.64,4.5-6.85l1.71-4.71
		L223.23,98.44h32.55l29.34,74.95l26.55-74.95h32.55l-47.97,125.05c-3.64,9.21-7.71,15.85-12.42,19.91
		c-7.07,6.21-16.7,9.42-28.91,9.42c-4.92,0-9.64-0.43-14.13-1.5V223.7z"/>
	<path class="st0" d="M360.7,206.36V57.11h62.53c13.92,0,25.91,4.71,35.76,14.35c10.06,9.42,14.99,20.99,14.99,34.9
		c0,19.06-10.49,35.55-26.55,42.4l36.4,57.6h-37.26l-31.05-49.68h-0.43h-21.63v49.68H360.7z M393.46,127.56h26.12
		c12.85,0,21.41-8.14,21.41-20.77c0-11.35-8.14-19.7-18.63-19.7h-28.91V127.56z"/>
	<path class="st0" d="M713.78,127.34h-14.13V98.44h14.13V57.11h31.05v41.33h23.98v28.91h-23.98v38.54c0,10.28,4.07,14.35,13.7,14.35
		c1.71,0,4.5-0.21,8.14-0.86v28.26c-4.28,1.07-9.42,1.5-15.63,1.5c-24.84,0-37.26-12.85-37.26-38.54V127.34z"/>
	<path d="M786.51,178.74c7.07-6.85,17.77-6.85,24.63,0c7.07,6.85,7.07,17.56,0,24.41c-6.85,6.85-17.56,6.85-24.63,0
		C779.66,196.29,779.66,185.59,786.51,178.74z"/>
	<path d="M833.9,206.36V57.11h62.96c12.63,0,23.98,4.71,34.47,13.92c10.49,9.21,15.85,21.41,15.85,36.62
		c0,14.56-5.14,26.55-15.42,36.19c-10.28,9.64-21.84,14.35-34.9,14.35h-29.98v48.18H833.9z M866.88,128.2h28.05
		c4.5,0,8.99-1.5,13.06-4.71c4.07-3.21,6.21-8.56,6.21-15.85s-2.14-12.42-6.21-15.63s-8.57-4.92-13.06-4.92h-28.05V128.2z"/>
	<path d="M997.5,206.36L952.32,57.11h32.55l28.05,91.43l26.76-91.43h25.91l26.77,91.43l28.05-91.43h32.34l-45.18,149.25h-27.84
		l-27.19-89.08l-27.2,89.08H997.5z"/>
</g>
</svg>
