<?xml version="1.0" encoding="UTF-8" standalone="no"?>
<!-- Generator: Adobe Illustrator 23.0.0, SVG Export Plug-In . SVG Version: 6.00 Build 0)  -->

<svg
   xmlns:dc="http://purl.org/dc/elements/1.1/"
   xmlns:cc="http://creativecommons.org/ns#"
   xmlns:rdf="http://www.w3.org/1999/02/22-rdf-syntax-ns#"
   xmlns:svg="http://www.w3.org/2000/svg"
   xmlns="http://www.w3.org/2000/svg"
   xmlns:sodipodi="http://sodipodi.sourceforge.net/DTD/sodipodi-0.dtd"
   xmlns:inkscape="http://www.inkscape.org/namespaces/inkscape"
   version="1.1"
   id="Calque_1"
   x="0px"
   y="0px"
   viewBox="0 0 486.95998 71.209996"
   xml:space="preserve"
   sodipodi:docname="logo_white_noborder.svg"
   width="486.95999"
   height="71.209999"
   inkscape:version="0.92.4 (5da689c313, 2019-01-14)"><metadata
   id="metadata3785"><rdf:RDF><cc:Work
       rdf:about=""><dc:format>image/svg+xml</dc:format><dc:type
         rdf:resource="http://purl.org/dc/dcmitype/StillImage" /><dc:title></dc:title></cc:Work></rdf:RDF></metadata><defs
   id="defs3783" /><sodipodi:namedview
   pagecolor="#333"
   bordercolor="#666666"
   borderopacity="1"
   objecttolerance="10"
   gridtolerance="10"
   guidetolerance="10"
   inkscape:pageopacity="0"
   inkscape:pageshadow="2"
   inkscape:window-width="1802"
   inkscape:window-height="1224"
   id="namedview3781"
   showgrid="false"
   inkscape:pagecheckerboard="true"
   fit-margin-top="0"
   fit-margin-left="0"
   fit-margin-right="0"
   fit-margin-bottom="0"
   inkscape:zoom="1.0616852"
   inkscape:cx="243.46501"
   inkscape:cy="35.599985"
   inkscape:window-x="261"
   inkscape:window-y="72"
   inkscape:window-maximized="0"
   inkscape:current-layer="Calque_1" />
<style
   type="text/css"
   id="style3750">
	.st0{fill:#333;}
</style>
<g
   id="g3778"
   transform="translate(-177.48,-262.03)">
	<g
   id="g3758">
		<path
   class="st0"
   d="m 456.96,272.82 h 31.66 c 1.32,0 2.38,-1.1 2.38,-2.45 v -5.78 c 0,-1.35 -1.07,-2.45 -2.38,-2.45 h -31.66 c -1.32,0 -2.38,1.09 -2.38,2.45 v 5.78 c 0,1.36 1.06,2.45 2.38,2.45 z m 28.44,-6.73 c 0,-0.59 0.46,-1.06 1.03,-1.06 h 0.44 c 0.57,0 1.03,0.47 1.03,1.06 v 2.86 c 0,0.59 -0.46,1.06 -1.03,1.06 h -0.44 c -0.57,0 -1.03,-0.47 -1.03,-1.06 z M 481.31,266 c 0,-0.59 0.46,-1.06 1.03,-1.06 h 0.44 c 0.57,0 1.03,0.47 1.03,1.06 v 2.86 c 0,0.59 -0.46,1.06 -1.03,1.06 h -0.44 c -0.57,0 -1.03,-0.47 -1.03,-1.06 z m -4.09,-0.09 c 0,-0.59 0.46,-1.06 1.03,-1.06 h 0.44 c 0.57,0 1.03,0.47 1.03,1.06 v 2.86 c 0,0.59 -0.46,1.06 -1.03,1.06 h -0.44 c -0.57,0 -1.03,-0.47 -1.03,-1.06 z m -17.86,-0.87 c 1.33,0 2.41,1.11 2.41,2.48 0,1.37 -1.08,2.48 -2.41,2.48 -1.33,0 -2.41,-1.11 -2.41,-2.48 -0.01,-1.37 1.07,-2.48 2.41,-2.48 z"
   id="path3752"
   inkscape:connector-curvature="0"
   style="fill:#333" />
		<path
   class="st0"
   d="m 456.89,303.11 h 31.66 c 1.32,0 2.38,-1.1 2.38,-2.45 v -5.78 c 0,-1.35 -1.07,-2.45 -2.38,-2.45 h -31.66 c -1.32,0 -2.38,1.09 -2.38,2.45 v 5.78 c 0,1.36 1.07,2.45 2.38,2.45 z m 28.44,-6.73 c 0,-0.59 0.46,-1.06 1.03,-1.06 h 0.44 c 0.57,0 1.03,0.47 1.03,1.06 v 2.86 c 0,0.59 -0.46,1.06 -1.03,1.06 h -0.44 c -0.57,0 -1.03,-0.47 -1.03,-1.06 z m -4.09,-0.09 c 0,-0.59 0.46,-1.06 1.03,-1.06 h 0.44 c 0.57,0 1.03,0.47 1.03,1.06 v 2.86 c 0,0.59 -0.46,1.06 -1.03,1.06 h -0.44 c -0.57,0 -1.03,-0.47 -1.03,-1.06 z m -4.09,-0.09 c 0,-0.59 0.46,-1.06 1.03,-1.06 h 0.44 c 0.57,0 1.03,0.47 1.03,1.06 v 2.86 c 0,0.59 -0.46,1.06 -1.03,1.06 h -0.44 c -0.57,0 -1.03,-0.47 -1.03,-1.06 z m -17.86,-0.87 c 1.33,0 2.41,1.11 2.41,2.48 0,1.37 -1.08,2.48 -2.41,2.48 -1.33,0 -2.41,-1.11 -2.41,-2.48 0,-1.37 1.08,-2.48 2.41,-2.48 z"
   id="path3754"
   inkscape:connector-curvature="0"
   style="fill:#333" />
		<path
   class="st0"
   d="m 488.63,322.48 h -31.66 c -1.32,0 -2.38,1.09 -2.38,2.45 v 5.78 c 0,1.35 1.07,2.45 2.38,2.45 h 31.66 c 1.32,0 2.38,-1.09 2.38,-2.45 v -5.78 c 0.01,-1.35 -1.06,-2.45 -2.38,-2.45 z m -29.27,7.85 c -1.33,0 -2.41,-1.11 -2.41,-2.48 0,-1.37 1.08,-2.48 2.41,-2.48 1.33,0 2.41,1.11 2.41,2.48 0.01,1.37 -1.07,2.48 -2.41,2.48 z m 20.37,-1.22 c 0,0.59 -0.46,1.06 -1.03,1.06 h -0.44 c -0.57,0 -1.03,-0.47 -1.03,-1.06 v -2.86 c 0,-0.59 0.46,-1.06 1.03,-1.06 h 0.44 c 0.57,0 1.03,0.47 1.03,1.06 z m 4.09,0.09 c 0,0.59 -0.46,1.06 -1.03,1.06 h -0.44 c -0.57,0 -1.03,-0.47 -1.03,-1.06 v -2.86 c 0,-0.59 0.46,-1.06 1.03,-1.06 h 0.44 c 0.57,0 1.03,0.47 1.03,1.06 z m 4.09,0.09 c 0,0.59 -0.46,1.06 -1.03,1.06 h -0.44 c -0.57,0 -1.03,-0.47 -1.03,-1.06 v -2.86 c 0,-0.59 0.46,-1.06 1.03,-1.06 h 0.44 c 0.57,0 1.03,0.47 1.03,1.06 z"
   id="path3756"
   inkscape:connector-curvature="0"
   style="fill:#333" />
	</g>
	<path
   class="st0"
   d="m 659.41,266.69 v 0 c -3.26,-3.08 -7.67,-4.64 -13.11,-4.64 h -13.38 c -0.31,0 -0.61,0.01 -0.92,0.03 l -52.63,0.02 c -5.43,0 -9.86,1.56 -13.14,4.62 -3.37,3.14 -5.08,7.43 -5.08,12.74 v 5.58 c 0,4.57 1.68,8.28 4.99,11.03 2.95,2.45 6.56,4.15 10.73,5.06 3.75,0.81 7.48,1.6 11.19,2.34 3.33,0.67 6.18,1.76 8.48,3.25 1.78,1.15 2.57,2.54 2.57,4.5 v 4.26 c 0,5.18 -2.22,7.29 -7.67,7.29 h -11.31 c -5.45,0 -7.67,-2.08 -7.67,-7.19 v -3.35 c 0,-2.4 -1.68,-4.07 -4.08,-4.07 h -3.15 c -2.4,0 -4.08,1.68 -4.08,4.07 v 3.65 c 0,5.31 1.71,9.6 5.08,12.74 3.29,3.07 7.71,4.62 13.14,4.62 h 12.84 c 5.43,0 9.85,-1.56 13.15,-4.62 3.37,-3.14 5.08,-7.43 5.08,-12.74 v -4.97 c 0,-4.81 -1.66,-8.7 -4.92,-11.58 -2.96,-2.61 -6.58,-4.42 -10.75,-5.41 -3.77,-0.89 -7.57,-1.68 -11.29,-2.36 -5.02,-0.91 -11,-2.78 -11,-6.52 v -5.07 c 0,-5.25 2.19,-7.39 7.56,-7.39 l 29.97,-0.01 h 11.06 l 18.62,-0.01 c 0.13,0 0.25,0.01 0.32,0 l 5.76,-0.03 c 2.56,0 4.47,0.6 5.69,1.78 1.19,1.15 1.77,2.89 1.77,5.31 v 36.02 c 0,2.42 -0.58,4.16 -1.77,5.31 -1.21,1.18 -3.13,1.78 -5.69,1.78 h -12.4 c -2.54,0 -4.42,-0.6 -5.59,-1.79 -1.18,-1.19 -1.75,-2.92 -1.75,-5.3 v -29.47 c 0,-2.68 -2.13,-4.86 -4.74,-4.86 h -1.73 c -2.61,0 -4.74,2.18 -4.74,4.86 v 29.67 c 0,5.31 1.69,9.59 5.01,12.73 3.25,3.08 7.66,4.64 13.11,4.64 h 13.38 c 5.44,0 9.85,-1.56 13.11,-4.64 3.32,-3.14 5.01,-7.42 5.01,-12.73 v -36.42 c -0.03,-5.3 -1.71,-9.59 -5.03,-12.73 z"
   id="path3760"
   inkscape:connector-curvature="0"
   style="fill:#333" />
	<path
   class="st0"
   d="m 548.14,262.04 h -24.8 c -5.43,0 -9.85,1.56 -13.14,4.63 -3.37,3.14 -5.08,7.43 -5.08,12.74 v 9.64 c 0,4.5 1.28,8.3 3.81,11.28 1.76,2.08 3.97,3.63 6.59,4.64 l -11.48,22.67 c -0.94,1.79 -0.45,3.14 -0.08,3.79 0.38,0.66 1.33,1.77 3.39,1.77 h 3.37 c 2.08,0 3.75,-1.07 4.52,-2.82 l 12.03,-23.96 h 1.74 c 2.57,0 4.67,-2.15 4.67,-4.79 v -0.7 c 0,-2.64 -2.09,-4.79 -4.67,-4.79 h -5.13 c -2.57,0 -4.51,-0.61 -5.76,-1.8 -1.21,-1.15 -1.8,-2.85 -1.8,-5.19 v -9.54 c 0,-2.35 0.6,-4.07 1.82,-5.26 1.25,-1.21 3.19,-1.83 5.75,-1.83 h 17.02 v 54.65 c 0,3.32 2.63,6.02 5.87,6.02 h 1.37 c 2.34,0 3.97,-1.72 3.97,-4.18 v -62.8 c -0.01,-2.45 -1.64,-4.17 -3.98,-4.17 z"
   id="path3762"
   inkscape:connector-curvature="0"
   style="fill:#333" />
	<g
   id="g3772">
		<path
   class="st0"
   d="m 383.85,262.04 h -3.37 c -2.03,0 -3.63,1.3 -4.16,3.27 l -15.64,49.7 -15.6,-49.57 c -0.56,-2.09 -2.17,-3.39 -4.19,-3.39 h -3.37 c -1.86,0 -2.85,0.87 -3.34,1.61 -0.4,0.59 -0.97,1.83 -0.37,3.5 l 20.22,62.74 c 0.58,2.04 2.17,3.3 4.17,3.3 h 5 c 2,0 3.59,-1.26 4.17,-3.3 l 20.22,-62.74 0.04,-0.15 c 0.47,-1.74 -0.15,-2.92 -0.56,-3.47 -0.43,-0.57 -1.39,-1.5 -3.22,-1.5 z"
   id="path3764"
   inkscape:connector-curvature="0"
   style="fill:#333" />
		<path
   class="st0"
   d="m 267.05,262.03 -71.35,0.01 c -5.43,0 -9.85,1.56 -13.14,4.62 -3.37,3.14 -5.08,7.43 -5.08,12.74 v 5.58 c 0,4.57 1.68,8.28 4.99,11.02 2.95,2.45 6.56,4.15 10.73,5.06 3.75,0.81 7.48,1.6 11.19,2.34 3.33,0.67 6.18,1.76 8.48,3.25 1.78,1.15 2.57,2.54 2.57,4.5 v 4.26 c 0,5.18 -2.22,7.29 -7.67,7.29 h -11.31 c -5.45,0 -7.67,-2.08 -7.67,-7.19 v -3.35 c 0,-2.4 -1.68,-4.07 -4.08,-4.07 h -3.15 c -2.4,0 -4.08,1.68 -4.08,4.07 v 3.65 c 0,5.31 1.71,9.6 5.08,12.74 3.29,3.07 7.71,4.62 13.14,4.62 h 12.84 c 5.43,0 9.85,-1.56 13.15,-4.62 3.37,-3.14 5.08,-7.43 5.08,-12.74 v -4.97 c 0,-4.81 -1.66,-8.7 -4.92,-11.58 -2.96,-2.6 -6.58,-4.42 -10.75,-5.4 -3.78,-0.89 -7.58,-1.68 -11.29,-2.36 -5.02,-0.91 -11,-2.79 -11,-6.52 v -5.07 c 0,-5.25 2.19,-7.39 7.56,-7.39 l 70.7,-0.01 c 2.47,0 4.19,-1.68 4.19,-4.07 v -2.33 c -0.03,-2.4 -1.75,-4.08 -4.21,-4.08 z m 0,2.96 v 0 z"
   id="path3766"
   inkscape:connector-curvature="0"
   style="fill:#333" />
		<path
   class="st0"
   d="m 318.35,304.96 c 2.62,-1.02 4.83,-2.57 6.59,-4.64 2.53,-2.98 3.81,-6.77 3.81,-11.28 v -9.64 c 0,-5.31 -1.71,-9.6 -5.08,-12.74 -3.29,-3.07 -7.71,-4.63 -13.14,-4.63 h -24.8 c -2.34,0 -3.97,1.72 -3.97,4.18 v 62.8 c 0,2.46 1.63,4.18 3.97,4.18 h 1.36 c 3.24,0 5.87,-2.7 5.87,-6.03 v -54.65 h 17.02 c 2.56,0 4.49,0.62 5.74,1.83 1.22,1.19 1.82,2.91 1.82,5.26 v 9.54 c 0,2.34 -0.59,4.04 -1.8,5.19 -1.25,1.19 -3.19,1.8 -5.76,1.8 h -5.12 c -2.58,0 -4.67,2.15 -4.67,4.8 v 0.69 c 0,2.64 2.1,4.79 4.67,4.79 h 1.73 l 11.97,23.84 c 0.83,1.87 2.5,2.94 4.58,2.94 h 3.37 c 2.06,0 3,-1.11 3.39,-1.77 0.38,-0.65 0.86,-2.01 -0.08,-3.79 z"
   id="path3768"
   inkscape:connector-curvature="0"
   style="fill:#333" />
		<path
   class="st0"
   d="m 436.37,266.67 c -3.29,-3.07 -7.71,-4.63 -13.14,-4.63 h -25.02 c -2.34,0 -3.97,1.72 -3.97,4.18 v 62.8 c 0,2.46 1.63,4.18 3.97,4.18 h 1.42 c 3.21,0 5.82,-2.68 5.82,-5.97 v -54.7 h 17.35 c 2.55,0 4.43,0.59 5.61,1.75 1.17,1.16 1.73,2.9 1.73,5.33 v 11.46 c 0,2.36 -0.57,4.07 -1.73,5.23 -1.18,1.17 -3.06,1.76 -5.61,1.76 h -7.23 c -2.55,0 -4.62,2.13 -4.62,4.74 v 1.11 c 0,2.61 2.07,4.74 4.62,4.74 h 7.67 c 5.43,0 9.85,-1.56 13.14,-4.63 3.37,-3.14 5.08,-7.43 5.08,-12.74 v -11.87 c -0.01,-5.31 -1.72,-9.6 -5.09,-12.74 z"
   id="path3770"
   inkscape:connector-curvature="0"
   style="fill:#333" />
	</g>
	<path
   class="st0"
   d="M 269.42,302.85 H 236.3 c -0.91,0 -1.65,-0.74 -1.65,-1.65 v -7.37 c 0,-0.91 0.74,-1.65 1.65,-1.65 h 33.13 c 0.91,0 1.65,0.74 1.65,1.65 v 7.37 c 0,0.91 -0.74,1.65 -1.66,1.65 z"
   id="path3774"
   inkscape:connector-curvature="0"
   style="fill:#333" />
	<path
   class="st0"
   d="m 269.51,333.17 h -33.13 c -0.91,0 -1.65,-0.74 -1.65,-1.65 v -7.37 c 0,-0.91 0.74,-1.65 1.65,-1.65 h 33.13 c 0.91,0 1.65,0.74 1.65,1.65 v 7.37 c 0.01,0.91 -0.73,1.65 -1.65,1.65 z"
   id="path3776"
   inkscape:connector-curvature="0"
   style="fill:#333" />
</g>
</svg>
