<?xml version="1.0" encoding="UTF-8" standalone="no"?>
<!-- Created with Inkscape (http://www.inkscape.org/) -->

<svg
   width="224.1707mm"
   height="73.234543mm"
   viewBox="0 0 224.1707 73.234543"
   version="1.1"
   id="svg5"
   sodipodi:docname="System36 Logo Dark-NoFont.svg"
   inkscape:version="1.2.2 (732a01da63, 2022-12-09)"
   xmlns:inkscape="http://www.inkscape.org/namespaces/inkscape"
   xmlns:sodipodi="http://sodipodi.sourceforge.net/DTD/sodipodi-0.dtd"
   xmlns="http://www.w3.org/2000/svg"
   xmlns:svg="http://www.w3.org/2000/svg"
   xmlns:rdf="http://www.w3.org/1999/02/22-rdf-syntax-ns#"
   xmlns:cc="http://creativecommons.org/ns#"
   xmlns:dc="http://purl.org/dc/elements/1.1/">
  <title
     id="title24014">System36 Logo Dark</title>
  <sodipodi:namedview
     id="namedview7"
     pagecolor="#505050"
     bordercolor="#ffffff"
     borderopacity="1"
     inkscape:showpageshadow="0"
     inkscape:pageopacity="0"
     inkscape:pagecheckerboard="1"
     inkscape:deskcolor="#505050"
     inkscape:document-units="mm"
     showgrid="false"
     inkscape:zoom="1"
     inkscape:cx="285.5"
     inkscape:cy="103"
     inkscape:window-width="1920"
     inkscape:window-height="1017"
     inkscape:window-x="1272"
     inkscape:window-y="112"
     inkscape:window-maximized="1"
     inkscape:current-layer="layer1" />
  <defs
     id="defs2">
    <rect
       x="449.27609"
       y="33.528069"
       width="242.74321"
       height="174.34595"
       id="rect5081" />
    <rect
       x="245.42545"
       y="258.83667"
       width="634.35101"
       height="213.23851"
       id="rect4185" />
    <rect
       x="449.27609"
       y="33.528069"
       width="242.74321"
       height="174.34595"
       id="rect11942" />
  </defs>
  <g
     inkscape:label="Layer 1"
     inkscape:groupmode="layer"
     id="layer1"
     transform="translate(-40.296726,-56.51741)">
    <rect
       style="fill:none;stroke:#202020;stroke-width:6.75;stroke-dasharray:none;stroke-opacity:1"
       id="rect111"
       width="217.4207"
       height="66.484543"
       x="43.671726"
       y="59.89241" />
    <g
       aria-label="System"
       transform="matrix(0.26458333,0,0,0.26458333,-8.1612903,2.483871)"
       id="text4183"
       style="font-size:146.667px;white-space:pre;shape-inside:url(#rect4185);display:inline;fill:#202020;stroke:#ffffff;stroke-width:7.55906">
      <path
         d="m 293.09256,395.96959 q -11.58669,0 -20.53338,-2.49334 -8.80002,-2.64001 -15.54671,-7.33335 -6.60001,-4.69334 -11.88002,-11.00003 l 18.33337,-20.53338 q 7.33335,9.38669 15.25337,12.4667 8.06669,2.93334 15.1067,2.93334 2.78668,0 4.98668,-0.44 2.20001,-0.58667 3.37334,-1.76001 1.17334,-1.17333 1.17334,-3.22667 0,-1.90667 -1.32,-3.22667 -1.17334,-1.32001 -3.22668,-2.20001 -2.05334,-1.02667 -4.54668,-1.61334 -2.34667,-0.73333 -4.69334,-1.17333 -2.2,-0.44 -3.96001,-0.88 -8.80002,-2.05334 -15.40003,-4.98668 -6.60002,-2.93334 -11.00003,-7.04002 -4.40001,-4.10668 -6.60002,-9.38669 -2.05333,-5.28001 -2.05333,-11.88003 0,-7.48001 3.37334,-13.64003 3.52001,-6.16001 9.24002,-10.56002 5.86668,-4.40001 13.20003,-6.74668 7.48002,-2.34668 15.40004,-2.34668 11.58669,0 19.36004,2.20001 7.77335,2.05334 13.05336,6.01335 5.28002,3.96001 9.09336,9.24002 l -18.48004,17.74671 q -3.22668,-3.08001 -6.74669,-4.98668 -3.52,-2.05334 -7.33335,-2.93334 -3.66667,-1.02667 -7.33335,-1.02667 -3.37334,0 -5.72001,0.58667 -2.34667,0.44 -3.66668,1.61333 -1.32,1.02667 -1.32,2.93334 0,1.90667 1.61334,3.22668 1.76,1.17333 4.25334,2.05334 2.64001,0.88 5.13335,1.46667 2.64,0.44 4.40001,0.73333 8.06668,1.46667 14.81336,4.10668 6.74669,2.49334 11.73337,6.45335 5.13334,3.81334 7.77335,9.68002 2.78667,5.72001 2.78667,13.64003 0,11.29336 -5.72001,18.92004 -5.57335,7.62669 -15.10671,11.5867 -9.53335,3.81334 -21.26671,3.81334 z"
         style="font-weight:900;font-family:'Lexend Deca';-inkscape-font-specification:'Lexend Deca Heavy';stroke:none"
         id="path24415" />
      <path
         d="m 357.18615,428.23633 19.50672,-46.05344 0.29333,12.0267 -36.81342,-78.17352 h 33.14674 l 10.85336,26.10673 q 1.76001,4.10667 2.93334,7.77335 1.32001,3.66667 1.90667,6.89335 l -2.93334,2.64 q 0.58667,-1.61333 1.76001,-4.98667 1.17333,-3.52001 2.64,-8.06669 l 10.26669,-30.36007 H 433.893 l -34.17341,78.46685 -13.7867,33.73341 z"
         style="font-weight:900;font-family:'Lexend Deca';-inkscape-font-specification:'Lexend Deca Heavy';stroke:none"
         id="path24417" />
      <path
         d="m 470.26641,395.96959 q -12.76003,0 -22.29339,-3.81334 -9.38669,-3.96001 -14.6667,-9.82669 l 17.30671,-14.81337 q 4.69334,4.10668 10.70669,6.16001 6.16001,1.90668 10.26669,1.90668 1.46667,0 2.49334,-0.14667 1.17333,-0.29334 1.76,-0.73334 0.73334,-0.58666 1.02667,-1.17333 0.44,-0.58667 0.44,-1.46667 0,-2.20001 -2.34667,-3.22668 -1.32,-0.58666 -4.40001,-1.46667 -2.93334,-0.88 -7.77335,-2.05334 -5.72002,-1.46667 -10.56003,-3.66667 -4.69334,-2.20001 -8.06668,-5.13335 -3.52001,-3.22667 -5.57335,-7.33335 -1.90667,-4.10667 -1.90667,-9.24002 0,-6.01334 2.78667,-10.70669 2.78668,-4.69334 7.62669,-7.92002 4.84001,-3.37334 10.85336,-5.13334 6.01334,-1.76001 12.32003,-1.76001 7.18668,0 13.34669,1.46667 6.30668,1.32001 11.73336,3.96001 5.57335,2.49334 10.12003,6.01335 l -15.1067,16.86671 q -2.49334,-2.05334 -5.86668,-3.96001 -3.22668,-1.90667 -6.89335,-3.08001 -3.52001,-1.32 -6.60002,-1.32 -1.61334,0 -2.78667,0.29333 -1.02667,0.14667 -1.76001,0.73334 -0.73333,0.44 -1.17333,1.17333 -0.29334,0.58667 -0.29334,1.46667 0,1.17334 0.73334,2.20001 0.73333,1.02667 2.34667,1.76 1.32,0.58667 4.40001,1.61334 3.22667,1.02667 9.38669,2.78667 6.60001,1.90667 11.58669,4.40001 5.13335,2.49334 8.21336,5.86668 2.05333,2.34667 3.22667,5.28001 1.17334,2.93334 1.17334,6.30669 0,8.06668 -4.69335,14.37336 -4.54668,6.16002 -12.61336,9.82669 -8.06669,3.52001 -18.48004,3.52001 z"
         style="font-weight:900;font-family:'Lexend Deca';-inkscape-font-specification:'Lexend Deca Heavy';stroke:none"
         id="path24419" />
      <path
         d="m 521.8932,394.50292 v -98.2669 h 29.77341 v 98.2669 z m -12.17336,-53.53346 v -24.93339 h 54.85346 v 24.93339 z"
         style="font-weight:900;font-family:'Lexend Deca';-inkscape-font-specification:'Lexend Deca Heavy';stroke:none"
         id="path24421" />
      <path
         d="m 615.02691,395.96959 q -13.64003,0 -23.46672,-5.28001 -9.82669,-5.28002 -15.1067,-14.37337 -5.28001,-9.24002 -5.28001,-21.12005 0,-8.80002 2.93334,-16.28004 2.93334,-7.48001 8.21335,-12.90669 5.42668,-5.57335 12.61336,-8.50669 7.33335,-3.08001 15.98671,-3.08001 8.65335,0 15.69337,3.08001 7.18668,2.93334 12.32003,8.50669 5.13334,5.42668 7.77335,12.90669 2.78667,7.48002 2.49334,16.28004 l -0.14667,6.16002 h -61.45348 l -3.37334,-13.93337 h 41.21343 l -2.78667,2.93334 v -2.64001 q 0,-2.78667 -1.46667,-4.84001 -1.32001,-2.2 -3.81334,-3.37334 -2.49334,-1.17333 -5.86668,-1.17333 -4.25335,0 -7.18669,1.76 -2.93334,1.76 -4.54668,4.98668 -1.46667,3.22667 -1.46667,7.77335 0,5.28001 2.20001,9.24002 2.34667,3.96001 6.74668,6.16002 4.54668,2.2 11.14669,2.2 4.40001,0 7.48002,-1.02667 3.22668,-1.17333 6.74668,-3.66667 l 13.64004,19.21337 q -5.42668,4.25335 -10.7067,6.60002 -5.13334,2.34667 -10.26669,3.37334 -4.98667,1.02667 -10.26669,1.02667 z"
         style="font-weight:900;font-family:'Lexend Deca';-inkscape-font-specification:'Lexend Deca Heavy';stroke:none"
         id="path24423" />
      <path
         d="m 662.98709,394.50292 v -78.46685 h 27.5734 l 1.17333,12.32003 -3.37334,-1.17334 q 2.20001,-3.81334 4.98668,-6.16001 2.93334,-2.49334 6.16001,-3.96001 3.22668,-1.46667 6.60002,-2.05334 3.37334,-0.58667 6.45335,-0.58667 5.13334,0 9.68002,1.46667 4.54668,1.32001 8.21335,4.84001 3.66668,3.52001 6.16002,10.12003 l -4.54668,-0.14667 1.17334,-2.05334 q 2.2,-3.81334 5.28001,-6.45335 3.08,-2.64 6.74668,-4.40001 3.66667,-1.76 7.48002,-2.49333 3.81334,-0.88001 7.33335,-0.88001 9.68002,0 16.28004,3.66668 6.60001,3.66667 9.82668,10.85336 3.37335,7.04001 3.37335,17.16004 v 48.40011 h -29.77341 v -45.90677 q 0,-3.22668 -1.02667,-5.42668 -1.02666,-2.20001 -3.08,-3.37334 -1.90667,-1.17334 -4.69335,-1.17334 -2.2,0 -4.10667,0.73333 -1.76001,0.58667 -3.08001,1.90668 -1.17334,1.32 -1.90667,2.93334 -0.73334,1.61333 -0.73334,3.66667 v 46.64011 h -29.7734 v -45.90677 q 0,-3.22668 -1.02667,-5.42668 -1.02667,-2.20001 -3.08001,-3.37334 -1.90667,-1.17334 -4.69334,-1.17334 -2.2,0 -4.10668,0.73333 -1.76,0.58667 -3.08,1.90668 -1.17334,1.32 -1.90667,2.93334 -0.73334,1.61333 -0.73334,3.66667 v 46.64011 z"
         style="font-weight:900;font-family:'Lexend Deca';-inkscape-font-specification:'Lexend Deca Heavy';stroke:none"
         id="path24425" />
    </g>
    <text
       xml:space="preserve"
       transform="matrix(0.26458333,0,0,0.26458333,83.814766,61.988546)"
       id="text5079"
       style="font-style:normal;font-variant:normal;font-weight:900;font-stretch:normal;font-size:146.667px;font-family:'Lexend Deca';-inkscape-font-specification:'Lexend Deca Heavy';letter-spacing:-6px;white-space:pre;shape-inside:url(#rect5081);display:inline;fill:#ffffff;fill-opacity:1;stroke:none;stroke-width:7.55906;stroke-dasharray:none;stroke-opacity:1"><tspan
         x="449.27539"
         y="169.19433"
         id="tspan24816"><tspan
           style="fill:#0080ff"
           id="tspan24814"></tspan></tspan></text>
    <g
       aria-label="36"
       transform="matrix(0.26458333,0,0,0.26458333,83.814766,61.988546)"
       id="text11940"
       style="font-weight:900;font-size:146.667px;font-family:'Lexend Deca';-inkscape-font-specification:'Lexend Deca Heavy';letter-spacing:-6px;white-space:pre;shape-inside:url(#rect11942);display:inline;fill:#ffffff;stroke-width:7.55906">
      <path
         d="m 495.32883,170.661 q -13.64003,0 -24.05339,-5.28002 -10.26669,-5.42668 -18.33337,-19.06671 l 22.14671,-14.2267 q 2.78668,4.84001 6.16002,7.62669 3.37334,2.78667 7.04001,4.10667 3.66668,1.17334 7.62669,1.17334 3.37334,0 6.16001,-1.32 2.78668,-1.32001 4.40001,-3.66668 1.76001,-2.49334 1.76001,-5.86668 0,-3.66667 -1.76001,-6.01335 -1.61333,-2.49334 -4.69334,-3.66667 -3.08001,-1.32 -7.48002,-1.32 -1.90667,0 -4.25334,0.44 -2.34667,0.44 -4.84001,1.32 -2.49334,0.88 -4.98668,2.2 l -6.30668,-16.57337 19.94671,-21.41338 9.53336,3.080007 -42.09343,-1.46667 V 65.06075 h 66.29348 l 5.72002,11.440027 -34.32008,35.640083 -7.33335,-9.24002 q 1.17333,-0.58667 3.81334,-1.02667 2.78667,-0.58667 5.86668,-0.58667 7.04001,0 13.3467,2.64001 6.45334,2.49334 11.44002,7.04001 4.98668,4.40001 7.77335,10.41336 2.93334,6.01335 2.93334,13.05336 0,10.41336 -5.57334,18.62671 -5.42668,8.06669 -14.96004,12.9067 -9.38669,4.69335 -20.97338,4.69335 z"
         style="fill:#0080ff"
         id="path24410" />
      <path
         d="m 580.99558,169.19433 q -8.21335,0 -15.40003,-2.93334 -7.18668,-2.93334 -12.76003,-8.21336 -5.42668,-5.28001 -8.65335,-12.02669 -3.08001,-6.89335 -3.08001,-14.6667 0,-6.30668 1.17333,-11.44003 1.17334,-5.28001 3.22668,-9.97336 2.05334,-4.69334 4.84001,-9.38668 2.78667,-4.840015 6.01335,-10.266694 l 15.1067,-25.226726 h 28.74673 l 0.58667,1.46667 -22.73339,34.61341 q -3.37334,5.13335 -5.72001,9.53336 -2.2,4.25334 -4.25334,8.94669 -2.05334,4.69334 -5.13335,11.44002 l -5.57334,-6.30668 q 0.44,-5.72001 3.66667,-10.70669 3.22668,-4.98668 7.92002,-8.65335 4.84001,-3.81334 9.97336,-5.866683 5.28001,-2.053338 9.82669,-2.053338 8.80002,0 16.13337,4.693341 7.48001,4.54668 11.88002,12.17336 4.40001,7.62669 4.40001,16.72004 0,10.85336 -5.28001,19.50672 -5.28001,8.65335 -14.37336,13.64003 -9.09336,4.98668 -20.53339,4.98668 z m 0.58667,-24.9334 q 3.81334,0 6.74669,-1.46667 2.93334,-1.61333 4.54667,-4.40001 1.76001,-2.93334 1.76001,-6.60001 0,-3.22668 -1.76001,-6.01335 -1.76,-2.78667 -4.69334,-4.54668 -2.93334,-1.76 -6.60002,-1.76 -3.81334,0 -6.74668,1.76 -2.93334,1.61334 -4.69334,4.40001 -1.61334,2.78668 -1.61334,6.16002 0,3.66667 1.61334,6.45335 1.76,2.78667 4.69334,4.40001 2.93334,1.61333 6.74668,1.61333 z"
         style="fill:#0080ff"
         id="path24412" />
    </g>
  </g>
  <metadata
     id="metadata24012">
    <rdf:RDF>
      <cc:Work
         rdf:about="">
        <dc:title>System36 Logo Dark</dc:title>
      </cc:Work>
    </rdf:RDF>
  </metadata>
</svg>
