<svg width="561" height="100" viewBox="0 0 561 100" fill="none" xmlns="http://www.w3.org/2000/svg">
<path d="M144.72 73L147.456 68.68L163.44 51.832L144.72 30.664H156.24L170.136 46.576H170.928L184.896 30.664H196.416L193.608 34.912L177.696 51.832L196.416 73H184.896L170.928 56.944H170.136L156.24 73H144.72ZM206.516 73V30.664H251.3V37.576H216.02V47.512H242.948V54.64H216.02V66.088H251.588L254.468 72.208C254.468 72.4 253.82 72.592 252.524 72.784C251.228 72.928 248.996 73 245.828 73H206.516ZM265.961 73V36.424L265.241 30.664H275.609L300.089 56.296L302.897 60.184H303.689V30.664H313.193V73H304.049L278.993 46.936L276.185 43.552H275.465V73H265.961ZM344.238 73V55.432L323.286 30.664H334.806L345.462 44.128L348.774 48.592H349.494L352.806 44.128L363.462 30.664H374.982L372.174 34.984L353.742 55.72V73H344.238ZM399.554 73L399.482 37.504H380.762V30.592H427.85V37.504H409.058V73H399.554ZM438.674 73V30.664H448.178V48.232H476.402V30.664H485.906V73H476.402V55.144H448.178V73H438.674Z" fill="#333"/>
<path d="M11 19.2281L8.65273 18.3677L8.11806 19.8263L9.18905 20.9516L70.3586 85.2251L70.8574 85.7492L71.559 85.9259L97.6277 92.4914L99.5437 92.974L100.456 91.2213L104.218 83.994L105.034 82.4245L103.826 81.1322L42.3399 15.3787L41.8115 14.8136L41.0563 14.6458L14.4942 8.74219L13.1545 8.44443L12.184 9.41488C11.9224 9.72269 11.6878 10.1222 11.6632 10.1764C11.6537 10.1983 11.6396 10.232 11.6347 10.2439C11.6269 10.2632 11.6209 10.2787 11.6193 10.2828L11.6193 10.283L11.6099 10.3076L11.5995 10.3354L11.5725 10.4082L11.4774 10.6668L11.1419 11.5801C10.8649 12.3349 10.4959 13.3407 10.1272 14.3462L9.11341 17.1111L8.77942 18.0221L8.68584 18.2774L8.66119 18.3446L8.65487 18.3619L8.65327 18.3662L8.65287 18.3673L8.65277 18.3676L11 19.2281Z" fill="#fff" stroke="#1A202C" stroke-width="5"/>
<path d="M9.18905 80.4502L8.11787 81.5758L8.65287 83.0346L11 82.1737L8.65291 83.0347L8.65301 83.0349L8.65341 83.036L8.65501 83.0404L8.66134 83.0576L8.68599 83.1249L8.77957 83.38L9.11358 84.2906L10.1274 87.0537C10.4962 88.0585 10.8652 89.0635 11.1423 89.8176C11.2808 90.1945 11.3966 90.5093 11.478 90.7302L11.5738 90.9895L11.6019 91.0651L11.6147 91.0991C11.6164 91.1035 11.6222 91.1185 11.6294 91.1365C11.6316 91.1421 11.6422 91.1687 11.6566 91.202C11.6658 91.223 11.6939 91.2843 11.7134 91.3244C11.7714 91.4341 12.7423 92.399 13.9518 92.711H14.2266L14.4949 92.6513L41.057 86.7395L41.8117 86.5715L42.3398 86.0068L103.826 20.2574L105.035 18.9641L104.217 17.394L100.455 10.179L99.5423 8.42826L97.6277 8.91046L71.559 15.4759L70.8574 15.6526L70.3586 16.1767L9.18905 80.4502Z" fill="#667EEA" stroke="#1A202C" stroke-width="5"/>
</svg>
