<svg width="78" height="78" viewBox="0 0 78 78" fill="none" xmlns="http://www.w3.org/2000/svg">
<g clip-path="url(#clip0)">
<path d="M6 15.7956L3.65273 14.9352L3.11806 16.3938L4.18905 17.5191L48.5538 64.1351L49.0526 64.6592L49.7542 64.8359L68.6612 69.5977L70.5771 70.0802L71.4893 68.3276L74.2176 63.0858L75.0345 61.5163L73.826 60.224L29.2317 12.5347L28.7033 11.9696L27.9481 11.8017L8.68327 7.52L7.34354 7.22224L6.3731 8.19268C6.11145 8.50049 5.87692 8.89998 5.85232 8.95417C5.84284 8.97602 5.82867 9.00975 5.82382 9.02164C5.81605 9.04082 5.81013 9.05613 5.80857 9.06016L5.8085 9.06034L5.79959 9.08372L5.79098 9.10675L5.7709 9.16105L5.70161 9.34927L5.4582 10.012C5.25722 10.5596 4.98961 11.2891 4.72217 12.0184L3.98686 14.0238L3.74462 14.6846L3.67675 14.8697L3.65887 14.9185L3.65428 14.931L3.65312 14.9342L3.65283 14.935L3.65276 14.9352L6 15.7956Z" fill="white" stroke="#1A202C" stroke-width="5"/>
<path d="M4.18905 59.725L3.11787 60.8505L3.65287 62.3093L6 61.4485L3.6529 62.3094L3.65297 62.3096L3.65326 62.3104L3.65443 62.3135L3.65901 62.3261L3.6769 62.3748L3.74477 62.5599L3.98703 63.2203L4.72238 65.2245C4.98983 65.9532 5.2575 66.6823 5.45855 67.2293C5.55903 67.5027 5.6431 67.7313 5.70225 67.8918L5.77212 68.081L5.79339 68.1382L5.80444 68.1674C5.80595 68.1713 5.81151 68.1858 5.8186 68.2036L5.81879 68.2041C5.82134 68.2105 5.83172 68.2365 5.8457 68.2688C5.85487 68.2898 5.88297 68.351 5.90247 68.3911C5.96048 68.5008 6.9314 69.4657 8.14086 69.7777H8.41571L8.68399 69.718L27.9488 65.4303L28.7035 65.2624L29.2316 64.6976L73.826 17.0112L75.0354 15.718L74.2168 14.1479L71.4885 8.915L70.5758 7.16428L68.6612 7.64647L49.7542 12.4083L49.0526 12.585L48.5538 13.1091L4.18905 59.725Z" fill="#667EEA" stroke="#1A202C" stroke-width="5"/>
</g>
<defs>
<clipPath id="clip0">
<rect width="78" height="78" fill="white"/>
</clipPath>
</defs>
</svg>
